<svg xmlns="http://www.w3.org/2000/svg" viewBox="0 0 400 400" fill="none">
  <defs>
    <linearGradient id="hero-bg" x1="0" y1="0" x2="0" y2="1">
      <stop offset="0" stop-color="#0b0f14" />
      <stop offset="1" stop-color="#111827" />
    </linearGradient>
    <linearGradient id="printer-body" x1="0" y1="0" x2="1" y2="1">
      <stop offset="0" stop-color="#1f2937" />
      <stop offset="1" stop-color="#111827" />
    </linearGradient>
    <linearGradient id="accent" x1="0" y1="0" x2="1" y2="0">
      <stop offset="0" stop-color="#06b6d4" />
      <stop offset="1" stop-color="#8b5cf6" />
    </linearGradient>
  </defs>
  <rect width="400" height="400" fill="url(#hero-bg)" />
  <ellipse cx="200" cy="300" rx="160" ry="40" fill="#0f172a" />
  <ellipse cx="200" cy="300" rx="140" ry="30" fill="#0f172a" opacity="0.6" />
  <g transform="translate(60 80)">
    <rect x="0" y="220" width="280" height="32" rx="6" fill="#0f172a" />
    <rect x="18" y="60" width="244" height="160" rx="16" fill="url(#printer-body)" stroke="#1f2a3c" stroke-width="2" />
    <rect x="42" y="88" width="196" height="104" rx="8" fill="#0b1220" stroke="#1e293b" stroke-width="1.5" />
    <rect x="42" y="88" width="196" height="16" rx="8" fill="#111c2a" />
    <circle cx="64" cy="96" r="4" fill="#06b6d4" />
    <circle cx="80" cy="96" r="4" fill="#8b5cf6" />
    <circle cx="96" cy="96" r="4" fill="#10b981" />
    <rect x="112" y="140" width="56" height="60" rx="6" fill="#111c2a" stroke="#233040" stroke-width="1.2" />
    <rect x="130" y="140" width="20" height="60" fill="url(#accent)" />
    <rect x="122" y="200" width="32" height="6" rx="3" fill="#111c2a" stroke="#2b3b54" stroke-width="0.8" />
    <rect x="70" y="120" width="140" height="12" rx="4" fill="#1f2937" />
    <rect x="58" y="180" width="164" height="10" rx="4" fill="#1f2937" />
    <rect x="210" y="105" width="14" height="70" rx="4" fill="#1f2937" />
    <rect x="206" y="170" width="22" height="26" rx="6" fill="#0b1220" stroke="#233040" stroke-width="1" />
    <rect x="100" y="62" width="80" height="12" rx="6" fill="#0b1220" />
    <rect x="102" y="64" width="36" height="8" rx="4" fill="#06b6d4" />
    <rect x="142" y="64" width="36" height="8" rx="4" fill="#8b5cf6" />
    <rect x="234" y="100" width="30" height="100" rx="12" fill="#0f172a" stroke="#1e293b" stroke-width="1.2" />
    <circle cx="249" cy="100" r="14" fill="#0b1220" stroke="#1f2a3c" stroke-width="2" />
    <path d="M249 90c6 0 10 4 10 10s-4 10-10 10-10-4-10-10 4-10 10-10z" fill="url(#accent)" />
    <rect x="20" y="220" width="60" height="18" rx="6" fill="#111c2a" />
    <rect x="36" y="223" width="28" height="4" rx="2" fill="#06b6d4" />
    <rect x="36" y="230" width="20" height="4" rx="2" fill="#8b5cf6" />
    <g transform="translate(210 224)">
      <rect x="0" y="0" width="52" height="16" rx="6" fill="#111c2a" stroke="#1e293b" stroke-width="1" />
      <circle cx="12" cy="8" r="3" fill="#06b6d4" />
      <circle cx="24" cy="8" r="3" fill="#8b5cf6" />
      <rect x="32" y="6" width="16" height="4" rx="2" fill="#10b981" />
    </g>
  </g>
  <g transform="translate(260 70)">
    <rect x="0" y="0" width="110" height="54" rx="10" fill="#101826" stroke="#1e2837" stroke-width="1.5" />
    <rect x="16" y="16" width="78" height="22" rx="10" fill="#0b1220" />
    <path d="M24 27h62" stroke="#06b6d4" stroke-width="2" stroke-linecap="round" />
    <path d="M24 33h44" stroke="#8b5cf6" stroke-width="2" stroke-linecap="round" />
    <circle cx="24" cy="16" r="4" fill="#06b6d4" />
    <circle cx="36" cy="16" r="4" fill="#8b5cf6" />
    <circle cx="48" cy="16" r="4" fill="#10b981" />
  </g>
  <g transform="translate(80 108)">
    <rect x="0" y="0" width="64" height="36" rx="8" fill="#101826" stroke="#1e2837" stroke-width="1" />
    <rect x="12" y="12" width="40" height="12" rx="6" fill="#0b1220" />
    <rect x="14" y="14" width="18" height="8" rx="4" fill="#06b6d4" />
    <rect x="34" y="14" width="16" height="8" rx="4" fill="#8b5cf6" />
  </g>
  <g fill="#06b6d4" opacity="0.6">
    <circle cx="96" cy="72" r="3" />
    <circle cx="130" cy="48" r="2" />
    <circle cx="300" cy="66" r="3" />
    <circle cx="320" cy="96" r="2" />
  </g>
  <g stroke="#8b5cf6" stroke-width="2" stroke-linecap="round">
    <path d="M210 40l6 10 10-6" />
    <path d="M232 58l4 8 8-4" />
  </g>
</svg>
