<svg viewBox="0 0 400 400" xmlns="http://www.w3.org/2000/svg" fill="none">
  <defs>
    <!-- Gradientes principales -->
    <linearGradient id="bg-dark" x1="0%" y1="0%" x2="100%" y2="100%">
      <stop offset="0%" stop-color="#0B0F14"/>
      <stop offset="50%" stop-color="#1a1f2e"/>
      <stop offset="100%" stop-color="#0f1419"/>
    </linearGradient>
    
    <linearGradient id="magic-cyan" x1="0%" y1="0%" x2="100%" y2="100%">
      <stop offset="0%" stop-color="#06B6D4" stop-opacity="1"/>
      <stop offset="100%" stop-color="#3b82f6" stop-opacity="1"/>
    </linearGradient>
    
    <linearGradient id="magic-purple" x1="0%" y1="0%" x2="100%" y2="100%">
      <stop offset="0%" stop-color="#8b5cf6" stop-opacity="1"/>
      <stop offset="100%" stop-color="#6366f1" stop-opacity="1"/>
    </linearGradient>
    
    <linearGradient id="magic-dark" x1="0%" y1="0%" x2="100%" y2="100%">
      <stop offset="0%" stop-color="#1e293b" stop-opacity="1"/>
      <stop offset="100%" stop-color="#0f172a" stop-opacity="1"/>
    </linearGradient>
    
    <radialGradient id="glow-cyan" cx="50%" cy="50%" r="50%">
      <stop offset="0%" stop-color="#06B6D4" stop-opacity="0.8"/>
      <stop offset="100%" stop-color="#06B6D4" stop-opacity="0"/>
    </radialGradient>
    
    <radialGradient id="glow-purple" cx="50%" cy="50%" r="50%">
      <stop offset="0%" stop-color="#8b5cf6" stop-opacity="0.8"/>
      <stop offset="100%" stop-color="#8b5cf6" stop-opacity="0"/>
    </radialGradient>
    
    <!-- Filtros de efectos -->
    <filter id="glow-effect">
      <feGaussianBlur stdDeviation="4" result="coloredBlur"/>
      <feMerge>
        <feMergeNode in="coloredBlur"/>
        <feMergeNode in="SourceGraphic"/>
      </feMerge>
    </filter>
    
    <filter id="shadow-strong">
      <feDropShadow dx="0" dy="4" stdDeviation="8" flood-opacity="0.6"/>
    </filter>
  </defs>
  
  <!-- Círculos mágicos de fondo (ambiente integrado) -->
  <circle cx="320" cy="120" r="90" fill="url(#glow-purple)" opacity="0.2">
    <animate attributeName="r" values="90;105;90" dur="4s" repeatCount="indefinite"/>
    <animate attributeName="opacity" values="0.2;0.4;0.2" dur="4s" repeatCount="indefinite"/>
  </circle>
  
  <circle cx="80" cy="180" r="80" fill="url(#glow-cyan)" opacity="0.2">
    <animate attributeName="r" values="80;95;80" dur="3.5s" repeatCount="indefinite"/>
    <animate attributeName="opacity" values="0.2;0.4;0.2" dur="3.5s" repeatCount="indefinite"/>
  </circle>
  
  <circle cx="200" cy="200" r="120" fill="url(#glow-cyan)" opacity="0.12">
    <animate attributeName="r" values="120;140;120" dur="5s" repeatCount="indefinite"/>
    <animate attributeName="opacity" values="0.12;0.25;0.12" dur="5s" repeatCount="indefinite"/>
  </circle>
  
  <!-- Resplandor ambiental detrás de la impresora 3D -->
  <ellipse cx="200" cy="240" rx="140" ry="60" fill="url(#glow-cyan)" opacity="0.15">
    <animate attributeName="opacity" values="0.15;0.3;0.15" dur="3s" repeatCount="indefinite"/>
  </ellipse>
  
  <!-- Mesa de trabajo tech-mágica -->
  <rect x="50" y="320" width="300" height="15" rx="8" fill="url(#magic-dark)" stroke="#06B6D4" stroke-width="2" opacity="0.7"/>
  
  <!-- Runas arcanas en la mesa -->
  <g class="runes" opacity="0.6">
    <text x="100" y="330" font-family="serif" font-size="10" fill="#8b5cf6" opacity="0.8">⟨ ◊ ⟩</text>
    <animate attributeName="opacity" values="0.6;1;0.6" dur="3s" repeatCount="indefinite"/>
    <text x="180" y="330" font-family="serif" font-size="10" fill="#06B6D4" opacity="0.8">⬡ ✦ ⬡</text>
    <text x="260" y="330" font-family="serif" font-size="10" fill="#8b5cf6" opacity="0.8">⟨ ◊ ⟩</text>
  </g>
  
  <!-- IMPRESORA 3D CENTRAL - CYBERPUNK (elemento principal) -->
  <g class="printer-magic" transform="scale(1.15) translate(0, -15)">
    <!-- Aura mágica expansiva -->
    <ellipse cx="200" cy="250" rx="135" ry="42" fill="url(#glow-cyan)" opacity="0.45">
      <animate attributeName="opacity" values="0.45;0.75;0.45" dur="2s" repeatCount="indefinite"/>
      <animate attributeName="rx" values="135;155;135" dur="2s" repeatCount="indefinite"/>
      <animate attributeName="ry" values="42;52;42" dur="2s" repeatCount="indefinite"/>
    </ellipse>
    
    <!-- Base de la impresora - más grande y cyberpunk -->
    <rect x="120" y="240" width="160" height="60" rx="8" fill="url(#magic-dark)" stroke="#06B6D4" stroke-width="4" filter="url(#shadow-strong)">
      <animate attributeName="stroke-width" values="4;4.5;4" dur="2s" repeatCount="indefinite"/>
    </rect>
    
    <!-- Pantalla holográfica -->
    <rect x="135" y="250" width="50" height="35" rx="4" fill="#06B6D4" opacity="0.2" stroke="#06B6D4" stroke-width="2">
      <animate attributeName="opacity" values="0.2;0.4;0.2" dur="2s" repeatCount="indefinite"/>
    </rect>
    
    <!-- Símbolos en la pantalla -->
    <text x="145" y="270" font-family="monospace" font-size="10" fill="#06B6D4" opacity="0.9">3D</text>
    <text x="160" y="280" font-family="monospace" font-size="8" fill="#10B981" opacity="0.7">▲</text>
    
    <!-- Cama de impresión con runas -->
    <rect x="130" y="250" width="140" height="40" rx="4" fill="#1e293b" opacity="0.6"/>
    
    <!-- LOGO SIENDO IMPRESO EN 3D - con magia -->
    <g class="print-object-logo" filter="url(#glow-effect)" transform="translate(168, 247) scale(0.48)">
      <!-- Hexágono del logo apareciendo capa por capa -->
      <g opacity="0.95">
        <animate attributeName="opacity" values="0.5;0.95;0.5" dur="3s" repeatCount="indefinite"/>
        
        <!-- Hexágono exterior -->
        <path d="M40 10L70 26V58L40 74L10 58V26L40 10Z" fill="#0B1C1F" stroke="url(#magic-cyan)" stroke-width="3">
          <animate attributeName="stroke-width" values="3;4;3" dur="2s" repeatCount="indefinite"/>
        </path>
        
        <!-- Hexágono interior -->
        <path d="M40 20L64 34V56L40 70L16 56V34L40 20Z" fill="#010E10" stroke="#06B6D4" stroke-width="2.5"/>
        
        <!-- Símbolo "3" del logo -->
        <path d="M21 38C21 32 24 28 29 28H40V22L48 28V42H58V52H48V58C48 64 44 68 40 68H34V58H41C43 58 45 56 45 54V52H29C24 52 21 48 21 44V38Z" 
              fill="#0EF6E3" opacity="0.9">
          <animate attributeName="opacity" values="0.7;0.95;0.7" dur="2.5s" repeatCount="indefinite"/>
        </path>
        
        <!-- Detalles del logo -->
        <path d="M48 28H58V38H48V28Z" fill="#F04F63"/>
        <circle cx="30" cy="44" r="4" fill="#FF5C9B"/>
        <circle cx="48" cy="47" r="3" fill="#00E5FF"/>
      </g>
      
      <!-- Capas siendo impresas con efecto de construcción -->
      <g class="printing-layers">
        <rect x="15" y="65" width="50" height="1.5" fill="#FEDA77" opacity="0.95">
          <animate attributeName="width" values="0;50;50" dur="4s" repeatCount="indefinite"/>
          <animate attributeName="opacity" values="0;0.95;0.95" dur="4s" repeatCount="indefinite"/>
        </rect>
        <rect x="15" y="62" width="50" height="1.5" fill="#06B6D4" opacity="0.8">
          <animate attributeName="width" values="0;50;50" dur="4s" begin="0.3s" repeatCount="indefinite"/>
          <animate attributeName="opacity" values="0;0.8;0.8" dur="4s" begin="0.3s" repeatCount="indefinite"/>
        </rect>
        <rect x="15" y="59" width="50" height="1.5" fill="#10B981" opacity="0.7">
          <animate attributeName="width" values="0;50;50" dur="4s" begin="0.6s" repeatCount="indefinite"/>
          <animate attributeName="opacity" values="0;0.7;0.7" dur="4s" begin="0.6s" repeatCount="indefinite"/>
        </rect>
      </g>
      
      <!-- Partículas mágicas alrededor del logo -->
      <circle cx="12" cy="35" r="1.5" fill="#06B6D4">
        <animate attributeName="cy" values="35;25;35" dur="2s" repeatCount="indefinite"/>
        <animate attributeName="opacity" values="1;0;1" dur="2s" repeatCount="indefinite"/>
      </circle>
      <circle cx="68" cy="35" r="1.5" fill="#10B981">
        <animate attributeName="cy" values="35;25;35" dur="2.3s" repeatCount="indefinite"/>
        <animate attributeName="opacity" values="1;0;1" dur="2.3s" repeatCount="indefinite"/>
      </circle>
      <circle cx="40" cy="10" r="1.5" fill="#8b5cf6">
        <animate attributeName="r" values="1.5;2.5;1.5" dur="2s" repeatCount="indefinite"/>
        <animate attributeName="opacity" values="1;0.3;1" dur="2s" repeatCount="indefinite"/>
      </circle>
    </g>
    
    <!-- Torres verticales (Eje Z) CYBERPUNK con energía intensa -->
    <rect x="110" y="180" width="14" height="60" rx="4" fill="url(#magic-purple)" stroke="#8b5cf6" stroke-width="3" opacity="0.95" filter="url(#glow-effect)">
      <animate attributeName="opacity" values="0.95;1;0.95" dur="2s" repeatCount="indefinite"/>
    </rect>
    <rect x="276" y="180" width="14" height="60" rx="4" fill="url(#magic-purple)" stroke="#8b5cf6" stroke-width="3" opacity="0.95" filter="url(#glow-effect)">
      <animate attributeName="opacity" values="0.95;1;0.95" dur="2s" repeatCount="indefinite"/>
    </rect>
    
    <!-- Rayos de energía en las torres -->
    <line x1="116" y1="185" x2="116" y2="235" stroke="#8b5cf6" stroke-width="1" opacity="0.6">
      <animate attributeName="opacity" values="0.6;1;0.6" dur="1.5s" repeatCount="indefinite"/>
    </line>
    <line x1="284" y1="185" x2="284" y2="235" stroke="#8b5cf6" stroke-width="1" opacity="0.6">
      <animate attributeName="opacity" values="0.6;1;0.6" dur="1.5s" repeatCount="indefinite"/>
    </line>
    
    <!-- Eje horizontal (X) CYBERPUNK con energía brillante -->
    <rect x="110" y="175" width="180" height="14" rx="5" fill="url(#magic-cyan)" stroke="#06B6D4" stroke-width="3.5" opacity="0.98" filter="url(#glow-effect)">
      <animateTransform attributeName="transform" type="translate" values="0,0; 0,10; 0,0" dur="5s" repeatCount="indefinite"/>
      <animate attributeName="stroke-width" values="3.5;4.5;3.5" dur="2s" repeatCount="indefinite"/>
    </rect>
    
    <!-- Extrusor mágico CYBERPUNK - más prominente -->
    <g class="extrusor-magic" filter="url(#glow-effect)">
      <rect x="175" y="165" width="50" height="45" rx="7" fill="url(#magic-purple)" stroke="#8b5cf6" stroke-width="4" opacity="0.98">
        <animateTransform attributeName="transform" type="translate" values="0,0; 20,0; 0,0; -20,0; 0,0" dur="8s" repeatCount="indefinite"/>
        <animate attributeName="stroke-width" values="4;5;4" dur="1.5s" repeatCount="indefinite"/>
      </rect>
      
      <!-- Ojo mágico del extrusor -->
      <circle cx="200" cy="185" r="6" fill="#06B6D4" opacity="0.9">
        <animate attributeName="opacity" values="0.9;0.4;0.9" dur="2s" repeatCount="indefinite"/>
        <animateTransform attributeName="transform" type="translate" values="0,0; 20,0; 0,0; -20,0; 0,0" dur="8s" repeatCount="indefinite"/>
      </circle>
      
      <!-- Rayo láser del extrusor -->
      <line x1="200" y1="193" x2="200" y2="268" stroke="#FEDA77" stroke-width="2" opacity="0.8">
        <animate attributeName="opacity" values="0.8;0.4;0.8" dur="1.5s" repeatCount="indefinite"/>
        <animateTransform attributeName="transform" type="translate" values="0,0; 20,0; 0,0; -20,0; 0,0" dur="8s" repeatCount="indefinite"/>
      </line>
    </g>
  </g>
  
  <!-- IMPRESORA DE STICKERS 2D (lado derecho - integrada) -->
  <g class="sticker-printer" transform="translate(285, 110) scale(0.95)" filter="url(#shadow-strong)" opacity="0.95">
    <!-- Cuerpo principal de la impresora de stickers -->
    <rect x="0" y="0" width="90" height="60" rx="6" fill="url(#magic-dark)" stroke="#10B981" stroke-width="3" opacity="0.98">
      <animate attributeName="stroke-width" values="3;3.5;3" dur="2s" repeatCount="indefinite"/>
    </rect>
    
    <!-- Etiqueta "STICKER PRINTER" -->
    <text x="10" y="10" font-family="sans-serif" font-size="5" fill="#10B981" font-weight="bold" opacity="0.9">STICKER PRINTER</text>
    
    <!-- Pantalla LED más grande -->
    <rect x="10" y="15" width="35" height="25" rx="3" fill="#10B981" opacity="0.25" stroke="#10B981" stroke-width="2">
      <animate attributeName="opacity" values="0.25;0.45;0.25" dur="2s" repeatCount="indefinite"/>
    </rect>
    <text x="15" y="25" font-family="monospace" font-size="7" fill="#10B981" opacity="0.95">PRINT</text>
    <text x="15" y="33" font-family="monospace" font-size="5" fill="#06B6D4" opacity="0.9">100%</text>
    
    <!-- Barra de progreso -->
    <rect x="12" y="35" width="30" height="3" rx="1.5" fill="#0f172a" stroke="#10B981" stroke-width="0.5"/>
    <rect x="12" y="35" width="30" height="3" rx="1.5" fill="#10B981" opacity="0.8">
      <animate attributeName="width" values="0;30;30;0" dur="6s" repeatCount="indefinite"/>
    </rect>
    
    <!-- Botones de control más grandes -->
    <circle cx="58" cy="18" r="4" fill="#8b5cf6" opacity="0.9" stroke="#FEDA77" stroke-width="1">
      <animate attributeName="opacity" values="0.9;0.4;0.9" dur="1.2s" repeatCount="indefinite"/>
    </circle>
    <circle cx="70" cy="18" r="4" fill="#06B6D4" opacity="0.9" stroke="#FEDA77" stroke-width="1">
      <animate attributeName="opacity" values="0.9;0.4;0.9" dur="1.2s" begin="0.4s" repeatCount="indefinite"/>
    </circle>
    <circle cx="82" cy="18" r="4" fill="#10B981" opacity="0.9" stroke="#FEDA77" stroke-width="1">
      <animate attributeName="opacity" values="0.9;0.4;0.9" dur="1.2s" begin="0.8s" repeatCount="indefinite"/>
    </circle>
    
    <!-- Indicador de estado -->
    <text x="55" y="28" font-family="monospace" font-size="4" fill="#10B981" opacity="0.8">READY</text>
    
    <!-- Cabezal de impresión visible -->
    <rect x="15" y="45" width="60" height="8" rx="2" fill="#1e293b" stroke="#06B6D4" stroke-width="2">
      <animateTransform attributeName="transform" type="translate" values="0,0; 10,0; 0,0; -10,0; 0,0" dur="6s" repeatCount="indefinite"/>
    </rect>
    
    <!-- Ranura de salida de stickers más notoria -->
    <rect x="5" y="58" width="80" height="12" rx="3" fill="#0f172a" stroke="#10B981" stroke-width="2" opacity="0.9"/>
    <text x="25" y="66" font-family="sans-serif" font-size="5" fill="#10B981" opacity="0.7">OUTPUT</text>
    
    <!-- MÚLTIPLES STICKERS siendo impresos -->
    <g class="sticker-output-multiple">
      <!-- Sticker 1 (saliendo) -->
      <g>
        <rect x="25" y="68" width="40" height="35" rx="4" fill="#FEDA77" opacity="0.95" stroke="#10B981" stroke-width="2.5">
          <animate attributeName="y" values="45;68;68;68" dur="8s" repeatCount="indefinite"/>
          <animate attributeName="opacity" values="0;0.95;0.95;0.95" dur="8s" repeatCount="indefinite"/>
        </rect>
        
        <!-- Logo completo en sticker 1 -->
        <g transform="translate(45, 78)">
          <animate attributeName="opacity" values="0;0.9;0.9;0.9" dur="8s" repeatCount="indefinite"/>
          <path d="M0 0L8 4V12L0 16L-8 12V4L0 0Z" fill="#06B6D4" stroke="#1e293b" stroke-width="1" opacity="0.9"/>
          <circle cx="0" cy="8" r="2.5" fill="#8b5cf6"/>
          <circle cx="-3" cy="8" r="1" fill="#FEDA77"/>
          <circle cx="3" cy="8" r="1" fill="#10B981"/>
          <text x="-6" y="20" font-family="sans-serif" font-size="4" fill="#1e293b" font-weight="bold">MAHITEK</text>
        </g>
      </g>
      
      <!-- Sticker 2 (dentro de la máquina, parcial) -->
      <rect x="28" y="52" width="34" height="10" rx="2" fill="#FEDA77" opacity="0.6" stroke="#10B981" stroke-width="1.5">
        <animate attributeName="opacity" values="0.3;0.6;0.6;0" dur="8s" begin="4s" repeatCount="indefinite"/>
      </rect>
    </g>
    
    <!-- Rodillo interno más visible -->
    <g class="internal-roller">
      <ellipse cx="45" cy="40" rx="20" ry="4" fill="#8b5cf6" opacity="0.7" stroke="#06B6D4" stroke-width="1">
        <animateTransform attributeName="transform" type="rotate" values="0 45 40; 360 45 40" dur="2.5s" repeatCount="indefinite"/>
      </ellipse>
      <line x1="25" y1="40" x2="65" y2="40" stroke="#06B6D4" stroke-width="0.5" opacity="0.5">
        <animateTransform attributeName="transform" type="rotate" values="0 45 40; 360 45 40" dur="2.5s" repeatCount="indefinite"/>
      </line>
    </g>
    
    <!-- Partículas de tinta/adhesivo más notorias -->
    <circle cx="30" cy="48" r="1.5" fill="#10B981" opacity="0.9">
      <animate attributeName="cy" values="48;70;48" dur="3s" repeatCount="indefinite"/>
      <animate attributeName="opacity" values="0.9;0;0.9" dur="3s" repeatCount="indefinite"/>
    </circle>
    <circle cx="50" cy="48" r="1.5" fill="#06B6D4" opacity="0.9">
      <animate attributeName="cy" values="48;70;48" dur="3.5s" repeatCount="indefinite"/>
      <animate attributeName="opacity" values="0.9;0;0.9" dur="3.5s" repeatCount="indefinite"/>
    </circle>
    <circle cx="60" cy="48" r="1.5" fill="#FEDA77" opacity="0.9">
      <animate attributeName="cy" values="48;70;48" dur="4s" repeatCount="indefinite"/>
      <animate attributeName="opacity" values="0.9;0;0.9" dur="4s" repeatCount="indefinite"/>
    </circle>
    
    <!-- Luz LED de status parpadeante -->
    <circle cx="8" cy="8" r="2" fill="#10B981" opacity="0.9">
      <animate attributeName="opacity" values="0.9;0.2;0.9" dur="1s" repeatCount="indefinite"/>
    </circle>
  </g>

  <!-- CARRETES DE FILAMENTO ANIMADOS (integrados) -->
  <g class="filament-spools" opacity="0.9">
    <!-- Carrete izquierdo (cyan) -->
    <g class="spool-left" transform="translate(45, 210)">
      <ellipse cx="0" cy="0" rx="16" ry="5" fill="url(#magic-dark)" stroke="#06B6D4" stroke-width="2"/>
      <rect x="-16" y="0" width="32" height="30" fill="url(#magic-cyan)" opacity="0.75"/>
      <ellipse cx="0" cy="30" rx="16" ry="5" fill="url(#magic-dark)" stroke="#06B6D4" stroke-width="2"/>
      <ellipse cx="0" cy="0" rx="16" ry="5" fill="#06B6D4" opacity="0.3"/>
      
      <!-- Filamento enrollándose -->
      <path d="M-13 4 Q-8 7 -4 4 Q0 1 4 4 Q8 7 13 4" stroke="#06B6D4" stroke-width="1.8" fill="none" opacity="0.65">
        <animateTransform attributeName="transform" type="translate" values="0,0; 0,4; 0,8; 0,12; 0,16" dur="4s" repeatCount="indefinite"/>
        <animate attributeName="opacity" values="0.65;0;0.65" dur="4s" repeatCount="indefinite"/>
      </path>
      
      <!-- Rotación del carrete -->
      <animateTransform attributeName="transform" type="rotate" values="0 45 210; 360 45 210" dur="8s" repeatCount="indefinite" additive="sum"/>
    </g>
    
    <!-- Carrete derecho (purple) - más cercano -->
    <g class="spool-right" transform="translate(340, 230)">
      <ellipse cx="0" cy="0" rx="16" ry="5" fill="url(#magic-dark)" stroke="#8b5cf6" stroke-width="2"/>
      <rect x="-16" y="0" width="32" height="30" fill="url(#magic-purple)" opacity="0.75"/>
      <ellipse cx="0" cy="30" rx="16" ry="5" fill="url(#magic-dark)" stroke="#8b5cf6" stroke-width="2"/>
      <ellipse cx="0" cy="0" rx="16" ry="5" fill="#8b5cf6" opacity="0.3"/>
      
      <!-- Filamento enrollándose -->
      <path d="M-13 4 Q-8 7 -4 4 Q0 1 4 4 Q8 7 13 4" stroke="#8b5cf6" stroke-width="1.8" fill="none" opacity="0.65">
        <animateTransform attributeName="transform" type="translate" values="0,0; 0,4; 0,8; 0,12; 0,16" dur="4.5s" repeatCount="indefinite"/>
        <animate attributeName="opacity" values="0.65;0;0.65" dur="4.5s" repeatCount="indefinite"/>
      </path>
      
      <!-- Rotación del carrete -->
      <animateTransform attributeName="transform" type="rotate" values="0 340 230; 360 340 230" dur="7s" repeatCount="indefinite" additive="sum"/>
    </g>
    
    <!-- Carrete pequeño superior (verde tech) -->
    <g class="spool-small" transform="translate(95, 115)">
      <ellipse cx="0" cy="0" rx="11" ry="3.5" fill="url(#magic-dark)" stroke="#10B981" stroke-width="1.5"/>
      <rect x="-11" y="0" width="22" height="18" fill="#10B981" opacity="0.65"/>
      <ellipse cx="0" cy="18" rx="11" ry="3.5" fill="url(#magic-dark)" stroke="#10B981" stroke-width="1.5"/>
      
      <animateTransform attributeName="transform" type="rotate" values="0 95 115; -360 95 115" dur="6s" repeatCount="indefinite" additive="sum"/>
    </g>
  </g>

  <!-- BRUJO TECH MEXICANO (integrado al fondo) -->
  <g class="tech-wizard" opacity="0.85" filter="url(#shadow-strong)" transform="scale(0.95)">
    <!-- Posición nerviosa -->
    <g class="wizard-body">
      <animateTransform attributeName="transform" type="translate" values="0,0; 0,-2; 0,0; 0,-1; 0,0" dur="3s" repeatCount="indefinite"/>
      
      <!-- Cuello y hombros anatómicos -->
      <ellipse cx="80" cy="188" rx="8" ry="6" fill="#9d7854"/>
      <path d="M64 190 L64 200 Q64 210 70 218 L90 218 Q96 210 96 200 L96 190 Z" fill="#1e293b" stroke="#06B6D4" stroke-width="2.5"/>
      
      <!-- Cuerpo con hoodie tech - estructura más humana -->
      <path d="M64 190 Q58 200 58 220 L58 245 Q58 250 62 250 L98 250 Q102 250 102 245 L102 220 Q102 200 96 190" fill="#1e293b" stroke="#06B6D4" stroke-width="2"/>
      
      <!-- Hoodie con patrón geométrico mexicano mejorado -->
      <path d="M64 190 Q70 185 80 183 Q90 185 96 190 Q98 195 98 200 L98 210 L62 210 L62 200 Q62 195 64 190" fill="#0f172a" stroke="#8b5cf6" stroke-width="2.5"/>
      
      <!-- Diseño tenango/otomí en el hoodie -->
      <g opacity="0.75">
        <path d="M70 196 L72 198 L70 200 L68 198 Z" fill="#D4AF37"/>
        <path d="M80 194 L82 196 L80 198 L78 196 Z" fill="#C41E3A"/>
        <path d="M90 196 L92 198 L90 200 L88 198 Z" fill="#10B981"/>
        <rect x="72" y="202" width="16" height="2" fill="#D4AF37" opacity="0.8"/>
        <rect x="74" y="205" width="12" height="2" fill="#C41E3A" opacity="0.8"/>
        <rect x="76" y="208" width="8" height="2" fill="#10B981" opacity="0.8"/>
        <!-- Patrón geométrico adicional -->
        <circle cx="70" cy="215" r="2" fill="none" stroke="#D4AF37" stroke-width="1"/>
        <circle cx="90" cy="215" r="2" fill="none" stroke="#10B981" stroke-width="1"/>
      </g>
      
      <!-- Capucha con bordado de calavera tech -->
      <path d="M62 185 Q65 172 70 165 Q75 160 80 158 Q85 160 90 165 Q95 172 98 185 Q98 192 96 195 L94 190 L66 190 L64 195 Q62 192 62 185" fill="#1e293b" stroke="#8b5cf6" stroke-width="2.8"/>
      <circle cx="80" cy="175" r="5" fill="#D4AF37" opacity="0.8"/>
      <circle cx="77" cy="176" r="1.8" fill="#06B6D4" opacity="0.95">
        <animate attributeName="opacity" values="0.95;0.3;0.95" dur="2s" repeatCount="indefinite"/>
      </circle>
      <circle cx="83" cy="176" r="1.8" fill="#06B6D4" opacity="0.95">
        <animate attributeName="opacity" values="0.95;0.3;0.95" dur="2s" begin="0.2s" repeatCount="indefinite"/>
      </circle>
      <path d="M77 178 L80 180 L83 178" stroke="#06B6D4" stroke-width="1.5" fill="none"/>
      
      <!-- ROSTRO HUMANO REALISTA - Piel morena mexicana prominente -->
      <!-- Base del rostro con estructura ósea -->
      <ellipse cx="80" cy="172" rx="16" ry="19" fill="#9d7854"/>
      <!-- Sombras faciales para profundidad -->
      <ellipse cx="80" cy="176" rx="14" ry="16" fill="#8b6f5f" opacity="0.25"/>
      <!-- Mejillas -->
      <ellipse cx="70" cy="175" rx="5" ry="6" fill="#b89968" opacity="0.6"/>
      <ellipse cx="90" cy="175" rx="5" ry="6" fill="#b89968" opacity="0.6"/>
      
      <!-- Frente -->
      <path d="M66 162 Q80 160 94 162 Q92 168 80 168 Q68 168 66 162" fill="#9d7854"/>
      
      <!-- Cabello negro abundante mexicano con volumen -->
      <ellipse cx="80" cy="158" rx="17" ry="11" fill="#0d0c0b"/>
      <path d="M64 158 Q66 152 68 155 Q70 150 72 154 Q74 149 76 153 Q78 148 80 152" fill="#0d0c0b"/>
      <path d="M80 152 Q82 148 84 153 Q86 149 88 154 Q90 150 92 155 Q94 152 96 158" fill="#0d0c0b"/>
      <!-- Volumen lateral del cabello -->
      <ellipse cx="68" cy="162" rx="10" ry="9" fill="#0d0c0b" opacity="0.95"/>
      <ellipse cx="92" cy="162" rx="10" ry="9" fill="#0d0c0b" opacity="0.95"/>
      <!-- Copete -->
      <path d="M75 155 Q78 150 80 149 Q82 150 85 155" fill="#0d0c0b" stroke="#0d0c0b" stroke-width="2"/>
      
      <!-- Cejas GRUESAS mexicanas muy expresivas -->
      <path d="M68 167 Q71 165 75 166 Q77 166.5 78 167" stroke="#0d0c0b" stroke-width="3" stroke-linecap="round"/>
      <path d="M82 167 Q83 166.5 85 166 Q89 165 92 167" stroke="#0d0c0b" stroke-width="3" stroke-linecap="round"/>
      <!-- Pelo de cejas adicional para más realismo -->
      <path d="M69 167.5 L71 166.5 M73 166 L75 166.5 M76 167 L77 167" stroke="#0d0c0b" stroke-width="0.8" opacity="0.7"/>
      <path d="M83 167 L84 167 M85 166.5 L87 166 M89 166.5 L91 167.5" stroke="#0d0c0b" stroke-width="0.8" opacity="0.7"/>
      
      <!-- Ojos expresivos con blanco visible -->
      <ellipse cx="73" cy="171" rx="4" ry="4.5" fill="#ffffff"/>
      <ellipse cx="87" cy="171" rx="4" ry="4.5" fill="#ffffff"/>
      <!-- Iris café oscuro -->
      <circle cx="73" cy="171.5" r="2.8" fill="#2a1810">
        <animate attributeName="cy" values="171.5;171.3;171.5" dur="4s" repeatCount="indefinite"/>
      </circle>
      <circle cx="87" cy="171.5" r="2.8" fill="#2a1810">
        <animate attributeName="cy" values="171.5;171.3;171.5" dur="4s" begin="0.2s" repeatCount="indefinite"/>
      </circle>
      <!-- Pupilas -->
      <circle cx="73" cy="171" r="1.8" fill="#000000"/>
      <circle cx="87" cy="171" r="1.8" fill="#000000"/>
      <!-- Brillo tech-mágico en los ojos -->
      <circle cx="73.5" cy="170" r="1.2" fill="#06B6D4" opacity="0.95">
        <animate attributeName="opacity" values="0.95;0.5;0.95" dur="2s" repeatCount="indefinite"/>
      </circle>
      <circle cx="87.5" cy="170" r="1.2" fill="#06B6D4" opacity="0.95">
        <animate attributeName="opacity" values="0.95;0.5;0.95" dur="2s" repeatCount="indefinite"/>
      </circle>
      <!-- Párpados superiores -->
      <path d="M69 169 Q73 168 77 169" stroke="#8b6f5f" stroke-width="1.2" fill="none" opacity="0.6"/>
      <path d="M83 169 Q87 168 91 169" stroke="#8b6f5f" stroke-width="1.2" fill="none" opacity="0.6"/>
      
      <!-- Nariz mexicana prominente y ancha -->
      <path d="M80 168 L80 178" stroke="#8b6f5f" stroke-width="2.5" stroke-linecap="round"/>
      <path d="M78 177 Q80 179 82 177" stroke="#8b6f5f" stroke-width="2" fill="none"/>
      <ellipse cx="77" cy="178" rx="2" ry="2.5" fill="#8b6f5f" opacity="0.7"/>
      <ellipse cx="83" cy="178" rx="2" ry="2.5" fill="#8b6f5f" opacity="0.7"/>
      <!-- Puente de la nariz con sombra -->
      <path d="M78 170 L78 176" stroke="#8b6f5f" stroke-width="1" opacity="0.3"/>
      <path d="M82 170 L82 176" stroke="#8b6f5f" stroke-width="1" opacity="0.3"/>
      
      <!-- BIGOTE MEXICANO PROMINENTE Y ESPESO - característica destacada -->
      <!-- Base del bigote con volumen -->
      <ellipse cx="73" cy="180" rx="6" ry="3.5" fill="#0d0c0b" opacity="0.98"/>
      <ellipse cx="87" cy="180" rx="6" ry="3.5" fill="#0d0c0b" opacity="0.98"/>
      <!-- Puntas curvadas hacia arriba estilo mexicano -->
      <path d="M67 180 Q70 181 73 180.5 Q76 180 80 179.5 Q84 180 87 180.5 Q90 181 93 180" fill="#0d0c0b" stroke="#0d0c0b" stroke-width="3.5"/>
      <!-- Pelo del bigote con textura -->
      <path d="M68 179.5 Q70 178 72 179.5" stroke="#0d0c0b" stroke-width="1.5" opacity="0.9"/>
      <path d="M73 179 Q75 178 77 179" stroke="#0d0c0b" stroke-width="1.5" opacity="0.9"/>
      <path d="M83 179 Q85 178 87 179" stroke="#0d0c0b" stroke-width="1.5" opacity="0.9"/>
      <path d="M88 179.5 Q90 178 92 179.5" stroke="#0d0c0b" stroke-width="1.5" opacity="0.9"/>
      <!-- Volumen superior del bigote -->
      <ellipse cx="73" cy="179" rx="5" ry="2" fill="#0d0c0b" opacity="0.85"/>
      <ellipse cx="87" cy="179" rx="5" ry="2" fill="#0d0c0b" opacity="0.85"/>
      
      <!-- Boca seria/concentrada -->
      <path d="M74 183 Q80 184 86 183" stroke="#8b6f5f" stroke-width="1.8" fill="none"/>
      
      <!-- Barba abundante mexicana -->
      <ellipse cx="80" cy="186" rx="11" ry="7" fill="#1a1614" opacity="0.95"/>
      <path d="M72 184 Q76 186 80 186.5 Q84 186 88 184" fill="#1a1614" stroke="#1a1614" stroke-width="2"/>
      <!-- Textura de la barba -->
      <path d="M74 185 Q76 187 78 185" stroke="#1a1614" stroke-width="1" opacity="0.8"/>
      <path d="M82 185 Q84 187 86 185" stroke="#1a1614" stroke-width="1" opacity="0.8"/>
      
      <!-- Orejas -->
      <ellipse cx="64" cy="172" rx="3" ry="5" fill="#9d7854"/>
      <ellipse cx="96" cy="172" rx="3" ry="5" fill="#9d7854"/>
      
      <!-- Brazos más anatómicos levantados controlando la magia -->
      <!-- Brazo izquierdo -->
      <path d="M64 200 Q58 205 52 210 Q48 218 48 226" stroke="#1e293b" stroke-width="8" stroke-linecap="round" fill="none"/>
      <ellipse cx="48" cy="228" rx="6" ry="7" fill="#9d7854"/>
      <!-- Dedos de la mano izquierda -->
      <ellipse cx="45" cy="226" rx="2" ry="4" fill="#9d7854" transform="rotate(-20 45 226)"/>
      <ellipse cx="48" cy="224" rx="2" ry="5" fill="#9d7854" transform="rotate(-5 48 224)"/>
      <ellipse cx="51" cy="226" rx="2" ry="4" fill="#9d7854" transform="rotate(20 51 226)"/>
      
      <!-- Brazo derecho -->
      <path d="M96 200 Q102 205 108 210 Q112 218 112 226" stroke="#1e293b" stroke-width="8" stroke-linecap="round" fill="none"/>
      <ellipse cx="112" cy="228" rx="6" ry="7" fill="#9d7854"/>
      <!-- Dedos de la mano derecha -->
      <ellipse cx="109" cy="226" rx="2" ry="4" fill="#9d7854" transform="rotate(-20 109 226)"/>
      <ellipse cx="112" cy="224" rx="2" ry="5" fill="#9d7854" transform="rotate(5 112 224)"/>
      <ellipse cx="115" cy="226" rx="2" ry="4" fill="#9d7854" transform="rotate(20 115 226)"/>
      
      <!-- Auriculares tech con LEDs -->
      <rect x="61" y="169" width="5" height="10" rx="2.5" fill="#06B6D4" opacity="0.9">
        <animate attributeName="opacity" values="0.9;0.5;0.9" dur="2s" repeatCount="indefinite"/>
      </rect>
      <rect x="94" y="169" width="5" height="10" rx="2.5" fill="#06B6D4" opacity="0.9">
        <animate attributeName="opacity" values="0.9;0.5;0.9" dur="2s" begin="0.3s" repeatCount="indefinite"/>
      </rect>
      <path d="M66 174 Q80 171 94 174" stroke="#06B6D4" stroke-width="2.5" fill="none" opacity="0.8"/>
      <!-- LEDs en los auriculares -->
      <circle cx="63" cy="174" r="1.5" fill="#8b5cf6">
        <animate attributeName="fill" values="#8b5cf6;#06B6D4;#8b5cf6" dur="3s" repeatCount="indefinite"/>
      </circle>
      <circle cx="97" cy="174" r="1.5" fill="#8b5cf6">
        <animate attributeName="fill" values="#8b5cf6;#06B6D4;#8b5cf6" dur="3s" begin="0.5s" repeatCount="indefinite"/>
      </circle>
      
      <!-- Collar con dije azteca tech -->
      <path d="M72 188 Q80 189 88 188" stroke="#D4AF37" stroke-width="1.5" fill="none"/>
      <circle cx="80" cy="192" r="4" fill="#D4AF37" stroke="#06B6D4" stroke-width="1.5">
        <animate attributeName="fill" values="#D4AF37;#FEDA77;#D4AF37" dur="3s" repeatCount="indefinite"/>
      </circle>
      <path d="M77 192 L80 189 L83 192 L80 195 Z" fill="#06B6D4" opacity="0.9">
        <animate attributeName="opacity" values="0.9;0.5;0.9" dur="2s" repeatCount="indefinite"/>
      </path>
      <circle cx="80" cy="192" r="1.5" fill="#8b5cf6" opacity="0.8"/>
    </g>
    
    <!-- Energía mágica emanando de las manos -->
    <g class="magic-energy">
      <circle cx="48" cy="228" r="16" fill="url(#glow-purple)" opacity="0.65">
        <animate attributeName="r" values="16;22;16" dur="2s" repeatCount="indefinite"/>
        <animate attributeName="opacity" values="0.65;0.95;0.65" dur="2s" repeatCount="indefinite"/>
      </circle>
      
      <circle cx="112" cy="228" r="16" fill="url(#glow-cyan)" opacity="0.65">
        <animate attributeName="r" values="16;22;16" dur="2s" repeatCount="indefinite"/>
        <animate attributeName="opacity" values="0.65;0.95;0.65" dur="2s" repeatCount="indefinite"/>
      </circle>
      
      <!-- Partículas mágicas flotando de las manos -->
      <circle cx="45" cy="220" r="2" fill="#8b5cf6" opacity="0.8">
        <animate attributeName="cy" values="220;210;200" dur="3s" repeatCount="indefinite"/>
        <animate attributeName="opacity" values="0.8;0;0.8" dur="3s" repeatCount="indefinite"/>
      </circle>
      <circle cx="52" cy="222" r="2" fill="#8b5cf6" opacity="0.8">
        <animate attributeName="cy" values="222;212;202" dur="3s" begin="0.5s" repeatCount="indefinite"/>
        <animate attributeName="opacity" values="0.8;0;0.8" dur="3s" begin="0.5s" repeatCount="indefinite"/>
      </circle>
      <circle cx="108" cy="220" r="2" fill="#06B6D4" opacity="0.8">
        <animate attributeName="cy" values="220;210;200" dur="3s" repeatCount="indefinite"/>
        <animate attributeName="opacity" values="0.8;0;0.8" dur="3s" repeatCount="indefinite"/>
      </circle>
      <circle cx="115" cy="222" r="2" fill="#06B6D4" opacity="0.8">
        <animate attributeName="cy" values="222;212;202" dur="3s" begin="0.5s" repeatCount="indefinite"/>
        <animate attributeName="opacity" values="0.8;0;0.8" dur="3s" begin="0.5s" repeatCount="indefinite"/>
      </circle>
      
      <!-- Rayos de magia hacia la impresora -->
      <path d="M48 228 Q80 235 120 240" stroke="#8b5cf6" stroke-width="3" opacity="0.75" fill="none" stroke-dasharray="6,4">
        <animate attributeName="opacity" values="0.75;1;0.75" dur="1.5s" repeatCount="indefinite"/>
        <animate attributeName="stroke-dashoffset" values="0;-10;0" dur="2s" repeatCount="indefinite"/>
      </path>
      <path d="M112 228 Q140 235 180 240" stroke="#06B6D4" stroke-width="3" opacity="0.75" fill="none" stroke-dasharray="6,4">
        <animate attributeName="opacity" values="0.75;1;0.75" dur="1.5s" repeatCount="indefinite"/>
        <animate attributeName="stroke-dashoffset" values="0;-10;0" dur="2s" repeatCount="indefinite"/>
      </path>
    </g>
  </g>
  
  <!-- MONITOR HOLOGRÁFICO -->
  <g class="holographic-monitor" transform="translate(320, 80)">
    <rect x="0" y="0" width="55" height="40" rx="4" fill="url(#magic-dark)" stroke="#06B6D4" stroke-width="2" opacity="0.8"/>
    <rect x="3" y="3" width="49" height="30" rx="2" fill="#06B6D4" opacity="0.15">
      <animate attributeName="opacity" values="0.15;0.3;0.15" dur="3s" repeatCount="indefinite"/>
    </rect>
    
    <!-- Datos en el monitor -->
    <text x="8" y="12" font-family="monospace" font-size="6" fill="#06B6D4" opacity="0.9">TEMP: 210°C</text>
    <text x="8" y="20" font-family="monospace" font-size="6" fill="#10B981" opacity="0.9">Z: 45.2mm</text>
    <text x="8" y="28" font-family="monospace" font-size="6" fill="#8b5cf6" opacity="0.9">SPEED: 60mm/s</text>
    
    <!-- Parpadeo de datos -->
    <rect x="40" y="9" width="8" height="3" fill="#10B981" opacity="0.8">
      <animate attributeName="opacity" values="0.8;0.2;0.8" dur="1s" repeatCount="indefinite"/>
    </rect>
    
    <!-- Base del monitor -->
    <rect x="22" y="40" width="11" height="8" rx="2" fill="url(#magic-dark)" stroke="#06B6D4" stroke-width="1.5"/>
    <rect x="20" y="48" width="15" height="3" rx="1.5" fill="url(#magic-dark)" stroke="#06B6D4" stroke-width="1"/>
  </g>
  
  <!-- HERRAMIENTAS FLOTANTES -->
  <g class="floating-tools">
    <!-- Espátula tech -->
    <g transform="translate(300, 280)">
      <rect x="0" y="0" width="4" height="25" rx="1" fill="#D4AF37" stroke="#FEDA77" stroke-width="1"/>
      <path d="M0 0 L4 0 L6 -8 L-2 -8 Z" fill="#8b5cf6" stroke="#06B6D4" stroke-width="1" opacity="0.9"/>
      <animateTransform attributeName="transform" type="rotate" values="0 302 280; 15 302 280; 0 302 280; -15 302 280; 0 302 280" dur="6s" repeatCount="indefinite"/>
      <animateTransform attributeName="transform" type="translate" values="0,0; 0,-5; 0,0" dur="3s" repeatCount="indefinite" additive="sum"/>
    </g>
    
    <!-- Pinzas tech -->
    <g transform="translate(280, 120)">
      <path d="M0 0 L2 0 L3 12 L1 12 Z" fill="#06B6D4" stroke="#3b82f6" stroke-width="1"/>
      <path d="M4 0 L6 0 L5 12 L3 12 Z" fill="#06B6D4" stroke="#3b82f6" stroke-width="1"/>
      <circle cx="3" cy="14" r="2" fill="#8b5cf6" opacity="0.8">
        <animate attributeName="opacity" values="0.8;0.4;0.8" dur="2s" repeatCount="indefinite"/>
      </circle>
      <animateTransform attributeName="transform" type="translate" values="0,0; 0,5; 0,0" dur="4s" repeatCount="indefinite" additive="sum"/>
    </g>
  </g>
  
  <!-- EFECTOS DE MAGIA NEGRA -->
  <g class="dark-magic" opacity="0.7">
    <!-- Círculo de invocación en el suelo -->
    <circle cx="200" cy="330" r="40" fill="none" stroke="#8b5cf6" stroke-width="2" stroke-dasharray="5,5" opacity="0.6">
      <animateTransform attributeName="transform" type="rotate" values="0 200 330; 360 200 330" dur="20s" repeatCount="indefinite"/>
    </circle>
    
    <!-- Símbolos arcanos girando -->
    <g opacity="0.8">
      <animateTransform attributeName="transform" type="rotate" values="0 200 330; 360 200 330" dur="15s" repeatCount="indefinite"/>
      <text x="190" y="315" font-family="serif" font-size="12" fill="#8b5cf6">◬</text>
      <text x="210" y="315" font-family="serif" font-size="12" fill="#8b5cf6">◭</text>
      <text x="190" y="345" font-family="serif" font-size="12" fill="#8b5cf6">◮</text>
      <text x="210" y="345" font-family="serif" font-size="12" fill="#8b5cf6">◯</text>
    </g>
  </g>
  
  <!-- PARTÍCULAS MÁGICAS FLOTANTES -->
  <g class="magic-particles">
    <!-- Partículas cyan -->
    <circle cx="150" cy="200" r="2" fill="#06B6D4" opacity="0.8">
      <animate attributeName="cy" values="200;150;200" dur="5s" repeatCount="indefinite"/>
      <animate attributeName="opacity" values="0.8;0.2;0.8" dur="5s" repeatCount="indefinite"/>
    </circle>
    <circle cx="250" cy="180" r="2" fill="#06B6D4" opacity="0.8">
      <animate attributeName="cy" values="180;130;180" dur="4.5s" repeatCount="indefinite"/>
      <animate attributeName="opacity" values="0.8;0.2;0.8" dur="4.5s" repeatCount="indefinite"/>
    </circle>
    
    <!-- Partículas purple -->
    <circle cx="180" cy="190" r="2" fill="#8b5cf6" opacity="0.8">
      <animate attributeName="cy" values="190;140;190" dur="5.5s" repeatCount="indefinite"/>
      <animate attributeName="opacity" values="0.8;0.2;0.8" dur="5.5s" repeatCount="indefinite"/>
    </circle>
    <circle cx="220" cy="210" r="2" fill="#8b5cf6" opacity="0.8">
      <animate attributeName="cy" values="210;160;210" dur="6s" repeatCount="indefinite"/>
      <animate attributeName="opacity" values="0.8;0.2;0.8" dur="6s" repeatCount="indefinite"/>
    </circle>
    
    <!-- Partículas green -->
    <circle cx="160" cy="220" r="2" fill="#10B981" opacity="0.8">
      <animate attributeName="cy" values="220;170;220" dur="5.2s" repeatCount="indefinite"/>
      <animate attributeName="opacity" values="0.8;0.2;0.8" dur="5.2s" repeatCount="indefinite"/>
    </circle>
    <circle cx="240" cy="200" r="2" fill="#10B981" opacity="0.8">
      <animate attributeName="cy" values="200;150;200" dur="4.8s" repeatCount="indefinite"/>
      <animate attributeName="opacity" values="0.8;0.2;0.8" dur="4.8s" repeatCount="indefinite"/>
    </circle>
  </g>
  
  <!-- CÓDIGO BINARIO FLOTANTE (Matrix style) -->
  <g class="binary-code" opacity="0.4">
    <text x="60" y="150" font-family="monospace" font-size="10" fill="#10B981">01</text>
    <animate attributeName="opacity" values="0.4;0.7;0.4" dur="3s" repeatCount="indefinite"/>
    <text x="340" y="170" font-family="monospace" font-size="10" fill="#06B6D4">10</text>
    <text x="80" y="120" font-family="monospace" font-size="8" fill="#8b5cf6">11</text>
  </g>
  
  <!-- RELÁMPAGOS DE ENERGÍA -->
  <g class="energy-bolts" opacity="0.5">
    <path d="M200 150 L205 160 L198 160 L203 170" stroke="#FEDA77" stroke-width="2" fill="none">
      <animate attributeName="opacity" values="0;1;0" dur="0.3s" repeatCount="indefinite" begin="0s"/>
    </path>
    <path d="M180 140 L185 150 L178 150 L183 160" stroke="#06B6D4" stroke-width="2" fill="none">
      <animate attributeName="opacity" values="0;1;0" dur="0.3s" repeatCount="indefinite" begin="0.5s"/>
    </path>
    <path d="M220 145 L225 155 L218 155 L223 165" stroke="#8b5cf6" stroke-width="2" fill="none">
      <animate attributeName="opacity" values="0;1;0" dur="0.3s" repeatCount="indefinite" begin="1s"/>
    </path>
  </g>
</svg>
