<svg xmlns="http://www.w3.org/2000/svg" viewBox="0 0 360 360" role="img" aria-labelledby="title desc">
  <title id="title">Taller de impresi칩n 3D Mahitek</title>
  <desc id="desc">Ilustraci칩n del 치rea de trabajo con impresora 3D, piezas en exhibici칩n y pantallas de monitoreo.</desc>
  <defs>
    <linearGradient id="bg" x1="0%" y1="0%" x2="100%" y2="100%">
      <stop offset="0%" stop-color="#0f172a"/>
      <stop offset="60%" stop-color="#1e2a44"/>
      <stop offset="100%" stop-color="#273552"/>
    </linearGradient>
    <linearGradient id="printer" x1="0%" y1="0%" x2="100%" y2="0%">
      <stop offset="0%" stop-color="#2f80ff"/>
      <stop offset="100%" stop-color="#00a6a8"/>
    </linearGradient>
    <linearGradient id="piece" x1="0%" y1="0%" x2="0%" y2="100%">
      <stop offset="0%" stop-color="#f9faff"/>
      <stop offset="100%" stop-color="#dce7ff"/>
    </linearGradient>
    <linearGradient id="glass" x1="0%" y1="0%" x2="100%" y2="0%">
      <stop offset="0%" stop-color="#ffffff" stop-opacity="0.9"/>
      <stop offset="100%" stop-color="#ffffff" stop-opacity="0.55"/>
    </linearGradient>
    <linearGradient id="hud" x1="0%" y1="0%" x2="0%" y2="100%">
      <stop offset="0%" stop-color="#2f80ff" stop-opacity="0.45"/>
      <stop offset="100%" stop-color="#00a6a8" stop-opacity="0.15"/>
    </linearGradient>
    <pattern id="mesh" width="18" height="18" patternUnits="userSpaceOnUse">
      <path d="M18 0H0V18" fill="none" stroke="#00f5ff" stroke-width="0.6" opacity="0.14"/>
    </pattern>
  </defs>
  <rect width="360" height="360" rx="48" fill="url(#bg)"/>
  <rect x="28" y="28" width="304" height="304" rx="40" fill="url(#mesh)" opacity="0.35"/>
  <g opacity="0.25" fill="#4cc9f0">
    <circle cx="68" cy="96" r="6"/>
    <circle cx="108" cy="64" r="4"/>
    <circle cx="300" cy="276" r="5"/>
    <path d="M260 92h24v2h-24z"/>
    <path d="M84 284h42v2H84z"/>
  </g>
  <rect x="52" y="92" width="256" height="200" rx="28" fill="rgba(15,23,42,0.55)"/>
  <rect x="52" y="92" width="256" height="200" rx="28" fill="url(#hud)" opacity="0.35"/>
  <path d="M84 116h192" stroke="#00f5ff" stroke-width="1.5" stroke-linecap="round" opacity="0.3"/>
  <path d="M84 260h192" stroke="#2f80ff" stroke-width="1.5" stroke-linecap="round" opacity="0.18"/>
  <g transform="translate(68 108)">
    <rect width="224" height="168" rx="24" fill="url(#glass)"/>
    <g transform="translate(20 24)">
      <rect width="120" height="120" rx="20" fill="#0b1422" opacity="0.12"/>
      <rect x="12" y="12" width="96" height="96" rx="18" fill="#ffffff" opacity="0.88"/>
      <rect x="24" y="86" width="72" height="10" rx="5" fill="#2f80ff" opacity="0.35"/>
      <path d="M36 72h48l-6-48a18 18 0 0 0-18-15 18 18 0 0 0-18 15z" fill="#007a7c" opacity="0.45"/>
      <path d="M60 20a14 14 0 0 0-14 14v8h28v-8a14 14 0 0 0-14-14z" fill="#eb3b5a" opacity="0.75"/>
      <circle cx="60" cy="26" r="8" fill="#2f80ff" opacity="0.4"/>
      <path d="M24 46h72" stroke="#00f5ff" stroke-width="1.5" stroke-linecap="round" opacity="0.35"/>
      <path d="M24 34h12" stroke="#00a6a8" stroke-width="1.5" stroke-linecap="round" opacity="0.4"/>
    </g>
    <g transform="translate(152 24)">
      <rect width="72" height="48" rx="12" fill="#0f172a" opacity="0.12"/>
      <rect x="6" y="6" width="60" height="36" rx="10" fill="#1c2538"/>
      <rect x="12" y="12" width="48" height="12" rx="6" fill="url(#printer)"/>
      <rect x="12" y="28" width="30" height="6" rx="3" fill="#ffffff" opacity="0.65"/>
      <circle cx="48" cy="31" r="3" fill="#2f80ff" opacity="0.8"/>
      <path d="M18 24h12" stroke="#00f5ff" stroke-width="1.5" stroke-linecap="round" opacity="0.35"/>
    </g>
    <g transform="translate(144 96)">
      <rect width="88" height="52" rx="16" fill="#0f172a" opacity="0.15"/>
      <rect x="8" y="8" width="72" height="36" rx="12" fill="url(#piece)"/>
      <path d="M24 32h40l-4-16a12 12 0 0 0-12-9 12 12 0 0 0-12 9z" fill="#eb3b5a" opacity="0.6"/>
      <rect x="24" y="18" width="40" height="8" rx="4" fill="#2f80ff" opacity="0.4"/>
      <path d="M16 12h56" stroke="#2f80ff" stroke-width="1.2" stroke-dasharray="6 6" opacity="0.35"/>
    </g>
  </g>
  <g fill="none" stroke-linecap="round" stroke-width="2" opacity="0.3">
    <path d="M92 244l-16 16" stroke="#00f5ff"/>
    <path d="M268 140l16-16" stroke="#2f80ff"/>
    <path d="M220 292h32" stroke="#00f5ff"/>
  </g>
  <g transform="translate(60 48)" opacity="0.55">
    <rect x="0" y="0" width="120" height="40" rx="12" fill="rgba(15,23,42,0.32)"/>
    <rect x="12" y="10" width="18" height="18" rx="6" fill="#2f80ff" opacity="0.65"/>
    <rect x="38" y="10" width="60" height="18" rx="9" fill="#ffffff" opacity="0.7"/>
  </g>
  <g transform="translate(228 44)" opacity="0.65">
    <rect width="84" height="52" rx="16" fill="#0f172a" opacity="0.45"/>
    <rect x="8" y="8" width="68" height="36" rx="12" fill="#101a2c"/>
    <path d="M20 32h44" stroke="#00a6a8" stroke-width="4" stroke-linecap="round"/>
    <circle cx="42" cy="20" r="8" fill="#2f80ff" opacity="0.7"/>
  </g>
  <rect x="112" y="304" width="136" height="20" rx="10" fill="#0f172a" opacity="0.35"/>
  <rect x="148" y="312" width="64" height="12" rx="6" fill="#ffffff" opacity="0.4"/>
  <path d="M112 312h-28" stroke="#00f5ff" stroke-width="2" stroke-linecap="round" opacity="0.28"/>
</svg>
