<?xml version="1.0" encoding="UTF-8"?>
<!DOCTYPE svg PUBLIC "-//W3C//DTD SVG 1.1//EN" "http://www.w3.org/Graphics/SVG/1.1/DTD/svg11.dtd">
<svg xmlns="http://www.w3.org/2000/svg" version="1.1" width="1024px" height="1024px" style="shape-rendering:geometricPrecision; text-rendering:geometricPrecision; image-rendering:optimizeQuality; fill-rule:evenodd; clip-rule:evenodd" xmlns:xlink="http://www.w3.org/1999/xlink">
<g><path style="opacity:1" fill="#0c0d0e" d="M 546.5,77.5 C 546.821,79.0481 547.821,79.7148 549.5,79.5C 549.811,86.0898 549.478,92.5898 548.5,99C 549.564,100.511 550.897,100.677 552.5,99.5C 553.344,101.759 555.011,102.759 557.5,102.5C 578.765,114.443 599.765,126.776 620.5,139.5C 621.344,141.759 623.011,142.759 625.5,142.5C 649.867,156.345 673.867,170.678 697.5,185.5C 697.389,186.117 697.056,186.617 696.5,187C 698.844,187.837 700.844,189.171 702.5,191C 706.185,193.394 710.185,194.894 714.5,195.5C 715.167,195.5 715.5,195.833 715.5,196.5C 714.761,196.369 714.094,196.536 713.5,197C 715.596,198.766 717.929,200.099 720.5,201C 721.833,201.667 721.833,202.333 720.5,203C 721.448,203.483 722.448,203.649 723.5,203.5C 723.279,207.795 724.612,208.462 727.5,205.5C 728.192,206.025 728.692,206.692 729,207.5C 730.626,207.146 732.459,207.146 734.5,207.5C 763.118,224.137 791.451,241.137 819.5,258.5C 819.709,259.922 820.209,261.255 821,262.5C 821.333,262.167 821.667,261.833 822,261.5C 824.95,264.031 828.117,266.198 831.5,268C 833.74,268.977 836.073,269.477 838.5,269.5C 854.998,278.915 871.332,288.581 887.5,298.5C 887.5,440.5 887.5,582.5 887.5,724.5C 885.381,724.468 884.048,725.468 883.5,727.5C 869.106,737.221 854.439,746.554 839.5,755.5C 838.167,755.5 836.833,755.5 835.5,755.5C 835.5,756.5 835.5,757.5 835.5,758.5C 803.308,779.427 770.975,800.094 738.5,820.5C 737.167,820.5 735.833,820.5 734.5,820.5C 734.5,821.5 734.5,822.5 734.5,823.5C 661.528,871.323 588.528,919.156 515.5,967C 513.86,967.348 512.527,966.848 511.5,965.5C 511.027,964.094 510.027,963.427 508.5,963.5C 499.483,958.328 490.817,952.661 482.5,946.5C 482.027,945.094 481.027,944.427 479.5,944.5C 478.29,944.068 477.29,943.401 476.5,942.5C 476.027,941.094 475.027,940.427 473.5,940.5C 473.027,939.094 472.027,938.427 470.5,938.5C 462.558,933.886 454.892,928.886 447.5,923.5C 447.027,922.094 446.027,921.427 444.5,921.5C 440.561,919.554 436.894,917.221 433.5,914.5C 433.027,913.094 432.027,912.427 430.5,912.5C 422.894,908.221 415.561,903.554 408.5,898.5C 408.027,897.094 407.027,896.427 405.5,896.5C 397.894,892.221 390.561,887.554 383.5,882.5C 383.027,881.094 382.027,880.427 380.5,880.5C 373.652,877.247 367.319,873.247 361.5,868.5C 361.027,867.094 360.027,866.427 358.5,866.5C 349.228,861.221 340.228,855.554 331.5,849.5C 331.027,848.094 330.027,847.427 328.5,847.5C 328.027,846.094 327.027,845.427 325.5,845.5C 281.82,818.329 238.486,790.663 195.5,762.5C 195.027,761.094 194.027,760.427 192.5,760.5C 188.561,758.554 184.894,756.221 181.5,753.5C 181.027,752.094 180.027,751.427 178.5,751.5C 163.47,742.563 148.637,733.23 134,723.5C 133.504,582.126 133.337,440.96 133.5,300C 134.381,299.292 135.047,298.458 135.5,297.5C 196.167,261.833 256.833,226.167 317.5,190.5C 319.027,190.573 320.027,189.906 320.5,188.5C 370.464,158.848 420.464,129.181 470.5,99.5C 472.459,93.2504 473.126,86.5837 472.5,79.5C 484.98,71.0878 497.98,63.4212 511.5,56.5C 523.689,62.7558 535.356,69.7558 546.5,77.5 Z"/></g>
<g><path style="opacity:1" fill="#cbcccb" d="M 472.5,79.5 C 473.126,86.5837 472.459,93.2504 470.5,99.5C 471.132,92.7332 471.799,86.0665 472.5,79.5 Z"/></g>
<g><path style="opacity:1" fill="#3b3c3c" d="M 546.5,77.5 C 547.583,77.5394 548.583,77.8728 549.5,78.5C 549.918,85.7469 550.918,92.7469 552.5,99.5C 550.897,100.677 549.564,100.511 548.5,99C 549.478,92.5898 549.811,86.0898 549.5,79.5C 547.821,79.7148 546.821,79.0481 546.5,77.5 Z"/></g>
<g><path style="opacity:1" fill="#606061" d="M 552.5,99.5 C 554.434,100.11 556.101,101.11 557.5,102.5C 555.011,102.759 553.344,101.759 552.5,99.5 Z"/></g>
<g><path style="opacity:1" fill="#fcfcfc" d="M 848.5,323.5 C 848.831,449.903 848.498,576.237 847.5,702.5C 735.937,773.533 624.77,845.2 514,917.5C 401.568,845.241 288.734,773.574 175.5,702.5C 174.333,658.837 174.167,615.17 175,571.5C 184.69,561.42 194.857,551.92 205.5,543C 216.833,542.667 228.167,542.333 239.5,542C 247.136,533.363 255.136,525.03 263.5,517C 282.531,516.11 301.531,516.443 320.5,518C 334.384,522.883 344.051,532.217 349.5,546C 361.225,546.912 372.892,546.579 384.5,545C 385.701,544.097 386.535,542.931 387,541.5C 386.971,522.172 386.804,502.839 386.5,483.5C 378.833,483.5 371.167,483.5 363.5,483.5C 363.5,489.833 363.5,496.167 363.5,502.5C 358.489,502.666 353.489,502.499 348.5,502C 347.263,501.768 346.263,501.268 345.5,500.5C 345.5,494.5 345.5,488.5 345.5,482.5C 342.941,482.198 340.607,482.532 338.5,483.5C 326.167,483.5 313.833,483.5 301.5,483.5C 301.5,488.5 301.5,493.5 301.5,498.5C 295.833,498.5 290.167,498.5 284.5,498.5C 284.5,469.167 284.5,439.833 284.5,410.5C 297.534,401.559 311.034,393.225 325,385.5C 360.733,407.952 396.566,430.285 432.5,452.5C 433.667,503.163 433.833,553.83 433,604.5C 408.687,619.441 402.02,640.108 413,666.5C 423.174,682.336 437.674,689.169 456.5,687C 473.278,683.557 484.444,673.723 490,657.5C 495.058,634.623 487.724,616.957 468,604.5C 467.833,546.83 467.333,489.164 466.5,431.5C 430.5,408.833 394.5,386.167 358.5,363.5C 399.933,338.035 441.433,312.701 483,287.5C 499.821,298.246 516.488,309.246 533,320.5C 533.042,343.217 533.709,365.883 535,388.5C 540.976,397.493 549.143,400.326 559.5,397C 564.757,394.744 568.257,390.91 570,385.5C 570.667,355.5 570.667,325.5 570,295.5C 541.082,277.292 512.249,258.958 483.5,240.5C 404.5,288.5 325.5,336.5 246.5,384.5C 245.667,427.829 245.167,471.163 245,514.5C 238.319,521.348 231.486,528.015 224.5,534.5C 223.333,480.836 223.167,427.17 224,373.5C 285.965,336.365 347.798,299.032 409.5,261.5C 410.167,235.167 410.833,208.833 411.5,182.5C 444.298,162.865 476.965,143.032 509.5,123C 510.833,122.333 512.167,122.333 513.5,123C 625.194,189.845 736.861,256.678 848.5,323.5 Z"/></g>
<g><path style="opacity:1" fill="#676767" d="M 620.5,139.5 C 622.434,140.11 624.101,141.11 625.5,142.5C 623.011,142.759 621.344,141.759 620.5,139.5 Z"/></g>
<g><path style="opacity:1" fill="#767676" d="M 320.5,188.5 C 320.027,189.906 319.027,190.573 317.5,190.5C 317.973,189.094 318.973,188.427 320.5,188.5 Z"/></g>
<g><path style="opacity:1" fill="#353536" d="M 697.5,185.5 C 703.339,188.585 709.006,191.918 714.5,195.5C 710.185,194.894 706.185,193.394 702.5,191C 700.844,189.171 698.844,187.837 696.5,187C 697.056,186.617 697.389,186.117 697.5,185.5 Z"/></g>
<g><path style="opacity:1" fill="#29292a" d="M 715.5,196.5 C 722.097,199.775 728.43,203.442 734.5,207.5C 732.459,207.146 730.626,207.146 729,207.5C 728.692,206.692 728.192,206.025 727.5,205.5C 724.612,208.462 723.279,207.795 723.5,203.5C 722.448,203.649 721.448,203.483 720.5,203C 721.833,202.333 721.833,201.667 720.5,201C 717.929,200.099 715.596,198.766 713.5,197C 714.094,196.536 714.761,196.369 715.5,196.5 Z"/></g>
<g><path style="opacity:1" fill="#0d0e0e" d="M 528.5,211.5 C 533.81,214.156 538.81,217.323 543.5,221C 539.543,226.413 535.71,231.913 532,237.5C 526.91,234.706 522.077,231.54 517.5,228C 521.053,222.385 524.72,216.885 528.5,211.5 Z"/></g>
<g><path style="opacity:1" fill="#0b0c0c" d="M 272.5,688.5 C 272.174,679.983 272.507,671.65 273.5,663.5C 355.819,714.654 437.486,766.82 518.5,820C 520.044,821.187 521.711,821.52 523.5,821C 548.167,805 572.833,789 597.5,773C 628.019,746.091 636.186,713.591 622,675.5C 616.158,664.324 608.158,654.991 598,647.5C 596.712,608.84 596.378,570.173 597,531.5C 628.078,508.711 659.245,486.044 690.5,463.5C 702.785,503.792 693.118,537.626 661.5,565C 648.527,575.075 634.36,583.242 619,589.5C 618.333,605.167 618.333,620.833 619,636.5C 653.353,664.178 686.52,693.345 718.5,724C 719.931,724.465 721.097,725.299 722,726.5C 722.464,725.906 722.631,725.239 722.5,724.5C 746.267,697.165 769.934,669.665 793.5,642C 798.787,640.839 804.121,640.006 809.5,639.5C 809.827,634.456 809.494,629.456 808.5,624.5C 800.839,625.583 793.172,626.75 785.5,628C 766.881,650.074 748.381,672.241 730,694.5C 727.564,697.447 724.731,699.78 721.5,701.5C 694.737,675.067 666.737,650.067 637.5,626.5C 636.502,618.528 636.169,610.528 636.5,602.5C 700.785,574.93 724.952,526.93 709,458.5C 701.743,440.745 690.243,426.411 674.5,415.5C 673.668,426.485 673.168,437.485 673,448.5C 640.078,472.044 607.245,495.711 574.5,519.5C 573.167,566.833 573.167,614.167 574.5,661.5C 601.792,676.089 611.626,698.422 604,728.5C 596.103,748.395 581.603,760.228 560.5,764C 546.333,775.5 532.167,787 518,798.5C 502.708,787.038 487.874,775.038 473.5,762.5C 477.833,757.5 482.5,752.833 487.5,748.5C 497.5,756.833 507.5,765.167 517.5,773.5C 523.314,768.854 528.98,764.021 534.5,759C 504.372,739.055 497.539,712.889 514,680.5C 519.903,671.763 527.736,665.429 537.5,661.5C 538.333,607.836 538.833,554.17 539,500.5C 572.08,477.71 605.247,455.043 638.5,432.5C 639.833,371.833 639.833,311.167 638.5,250.5C 595.901,224.952 553.401,199.286 511,173.5C 484.379,189.285 457.879,205.285 431.5,221.5C 430.167,212.5 430.167,203.5 431.5,194.5C 457.833,178.5 484.167,162.5 510.5,146.5C 616.999,210.249 723.333,274.249 829.5,338.5C 830.833,455.833 830.833,573.167 829.5,690.5C 723.898,758.106 618.564,826.106 513.5,894.5C 489.167,879 464.833,863.5 440.5,848C 444.5,842 448.5,836 452.5,830C 453.5,829.333 454.5,829.333 455.5,830C 462.16,834.999 469.16,839.499 476.5,843.5C 481.985,838.515 487.319,833.348 492.5,828C 419.271,781.226 345.938,734.726 272.5,688.5 Z"/></g>
<g><path style="opacity:1" fill="#0d0e0e" d="M 556.5,230.5 C 562.059,232.95 567.393,235.95 572.5,239.5C 568.902,245.04 565.069,250.374 561,255.5C 555.927,252.712 551.094,249.546 546.5,246C 549.969,240.89 553.302,235.723 556.5,230.5 Z"/></g>
<g><path style="opacity:1" fill="#0d0e0f" d="M 585.5,248.5 C 590.341,251.42 595.007,254.586 599.5,258C 596.614,263.612 593.114,268.779 589,273.5C 584.222,270.865 579.722,267.865 575.5,264.5C 578.464,258.883 581.798,253.55 585.5,248.5 Z"/></g>
<g><path style="opacity:1" fill="#d22623" d="M 293.5,249.5 C 294.663,270.996 294.829,292.663 294,314.5C 268.584,330.459 243.084,346.292 217.5,362C 211.956,363.404 206.29,363.904 200.5,363.5C 199.963,360.028 200.963,357.195 203.5,355C 229.299,339.365 254.966,323.532 280.5,307.5C 281.499,295.852 281.832,284.186 281.5,272.5C 277.699,273.45 274.199,275.117 271,277.5C 270.819,286.411 270.319,295.245 269.5,304C 257.665,311.418 245.665,318.585 233.5,325.5C 232.167,321.167 232.167,316.833 233.5,312.5C 241.416,307.959 249.249,303.293 257,298.5C 257.333,289.5 257.667,280.5 258,271.5C 269.814,264.016 281.647,256.683 293.5,249.5 Z"/></g>
<g><path style="opacity:1" fill="#d32623" d="M 320.5,249.5 C 319.176,260.674 319.176,272.007 320.5,283.5C 321.107,283.376 321.44,283.043 321.5,282.5C 341.833,270.5 362.167,258.5 382.5,246.5C 383.825,234.327 383.825,221.994 382.5,209.5C 381.893,209.624 381.56,209.957 381.5,210.5C 378.688,212.408 375.688,214.075 372.5,215.5C 371.833,224.833 371.167,234.167 370.5,243.5C 358.833,250.333 347.167,257.167 335.5,264C 333.975,265.009 332.308,265.509 330.5,265.5C 330.207,261.563 330.54,257.73 331.5,254C 340.174,248.328 349.174,243.161 358.5,238.5C 359.167,228.833 359.833,219.167 360.5,209.5C 371.833,202.833 383.167,196.167 394.5,189.5C 395.666,210.826 395.833,232.159 395,253.5C 365.965,271.365 336.798,289.032 307.5,306.5C 306.167,284.833 306.167,263.167 307.5,241.5C 320.833,233.833 334.167,226.167 347.5,218.5C 348.662,223.467 348.829,228.467 348,233.5C 338.888,238.971 329.721,244.305 320.5,249.5 Z"/></g>
<g><path style="opacity:1" fill="#390e0e" d="M 320.5,249.5 C 320.172,260.679 320.505,271.679 321.5,282.5C 321.44,283.043 321.107,283.376 320.5,283.5C 319.176,272.007 319.176,260.674 320.5,249.5 Z"/></g>
<g><path style="opacity:1" fill="#741c1a" d="M 381.5,210.5 C 381.56,209.957 381.893,209.624 382.5,209.5C 383.825,221.994 383.825,234.327 382.5,246.5C 382.828,234.322 382.495,222.322 381.5,210.5 Z"/></g>
<g><path style="opacity:1" fill="#353536" d="M 819.5,258.5 C 826.097,261.775 832.43,265.442 838.5,269.5C 836.073,269.477 833.74,268.977 831.5,268C 828.117,266.198 824.95,264.031 822,261.5C 821.667,261.833 821.333,262.167 821,262.5C 820.209,261.255 819.709,259.922 819.5,258.5 Z"/></g>
<g><path style="opacity:1" fill="#fafafa" d="M 673.5,270.5 C 678.139,273.155 682.806,275.821 687.5,278.5C 688.167,297.5 688.833,316.5 689.5,335.5C 694.249,337.305 698.915,339.305 703.5,341.5C 704.333,323.843 704.833,306.176 705,288.5C 709.418,291.293 713.918,293.959 718.5,296.5C 719.332,306.483 719.832,316.483 720,326.5C 725.341,319.663 730.841,312.996 736.5,306.5C 741.082,309.041 745.582,311.707 750,314.5C 750.315,315.908 749.982,317.241 749,318.5C 738.931,329.646 729.097,340.98 719.5,352.5C 723.659,356.49 727.993,360.324 732.5,364C 735.745,362.804 738.579,360.637 741,357.5C 750,346.5 759,335.5 768,324.5C 773.301,327.636 778.468,330.97 783.5,334.5C 771.902,348.021 760.068,361.355 748,374.5C 747.333,375.5 747.333,376.5 748,377.5C 750.951,380.572 753.784,383.739 756.5,387C 758.788,387.418 760.788,386.751 762.5,385C 777.691,372.975 793.024,361.142 808.5,349.5C 809.833,356.833 809.833,364.167 808.5,371.5C 794.5,381.833 780.5,392.167 766.5,402.5C 769.269,407.039 771.769,411.706 774,416.5C 785.3,410.433 796.8,404.767 808.5,399.5C 809.833,405.833 809.833,412.167 808.5,418.5C 800.611,421.407 792.777,424.407 785,427.5C 785.218,433.132 785.384,438.799 785.5,444.5C 793.339,442.776 801.006,440.443 808.5,437.5C 809.663,443.137 809.83,448.804 809,454.5C 796.622,457.344 784.122,459.678 771.5,461.5C 767.278,437.987 758.111,416.653 744,397.5C 724.619,374.567 701.452,356.567 674.5,343.5C 673.5,319.176 673.167,294.842 673.5,270.5 Z"/></g>
<g><path style="opacity:1" fill="#0a0c0c" d="M 618.5,275.5 C 619.49,281.31 619.823,287.31 619.5,293.5C 612.003,297.221 604.337,300.555 596.5,303.5C 595.511,298.025 595.178,292.358 595.5,286.5C 602.976,282.597 610.642,278.93 618.5,275.5 Z"/></g>
<g><path style="opacity:1" fill="#6f6f6f" d="M 618.5,275.5 C 618.56,274.957 618.893,274.624 619.5,274.5C 620.817,280.988 620.817,287.322 619.5,293.5C 619.823,287.31 619.49,281.31 618.5,275.5 Z"/></g>
<g><path style="opacity:1" fill="#434343" d="M 595.5,286.5 C 595.178,292.358 595.511,298.025 596.5,303.5C 596.44,304.043 596.107,304.376 595.5,304.5C 594.183,298.346 594.183,292.346 595.5,286.5 Z"/></g>
<g><path style="opacity:1" fill="#f5f6f4" d="M 135.5,297.5 C 134.833,296.167 134.833,296.167 135.5,297.5 Z"/></g>
<g><path style="opacity:1" fill="#101111" d="M 618.5,312.5 C 619.814,314.915 620.481,317.748 620.5,321C 620.333,323.833 620.167,326.667 620,329.5C 611.875,332.264 603.709,334.93 595.5,337.5C 594.504,331.537 594.171,325.537 594.5,319.5C 602.773,317.769 610.773,315.435 618.5,312.5 Z"/></g>
<g><path style="opacity:1" fill="#0c0d0e" d="M 465.5,317.5 C 480.261,324.046 494.927,330.879 509.5,338C 510.479,344.744 510.812,351.578 510.5,358.5C 497.285,352.559 484.285,346.059 471.5,339C 467.979,337.326 464.313,336.16 460.5,335.5C 461.545,329.319 463.212,323.319 465.5,317.5 Z"/></g>
<g><path style="opacity:1" fill="#701918" d="M 219.5,321.5 C 219.56,320.957 219.893,320.624 220.5,320.5C 221.811,324.984 221.811,329.317 220.5,333.5C 220.817,329.298 220.483,325.298 219.5,321.5 Z"/></g>
<g><path style="opacity:1" fill="#cf2623" d="M 219.5,321.5 C 220.483,325.298 220.817,329.298 220.5,333.5C 213.953,338.274 206.953,342.274 199.5,345.5C 199.176,341.445 199.509,337.445 200.5,333.5C 206.851,329.473 213.184,325.473 219.5,321.5 Z"/></g>
<g><path style="opacity:1" fill="#d12623" d="M 187.5,328.5 C 186.503,345.992 186.17,363.659 186.5,381.5C 192.167,381.5 197.833,381.5 203.5,381.5C 204.794,382.29 205.961,383.29 207,384.5C 207.5,397.829 207.667,411.163 207.5,424.5C 200.5,424.5 193.5,424.5 186.5,424.5C 186.5,437.167 186.5,449.833 186.5,462.5C 182.5,462.5 178.5,462.5 174.5,462.5C 174.5,445.5 174.5,428.5 174.5,411.5C 181.687,411.825 188.687,411.491 195.5,410.5C 195.5,404.833 195.5,399.167 195.5,393.5C 188.167,393.5 180.833,393.5 173.5,393.5C 173.167,369.491 173.5,345.491 174.5,321.5C 198.332,307.752 221.998,293.752 245.5,279.5C 246.662,284.131 246.828,288.798 246,293.5C 226.721,305.555 207.221,317.222 187.5,328.5 Z"/></g>
<g><path style="opacity:1" fill="#27b2f5" d="M 437.5,350.5 C 437.5,355.5 437.5,360.5 437.5,365.5C 432.5,365.5 427.5,365.5 422.5,365.5C 422.5,360.167 422.5,354.833 422.5,349.5C 427.695,349.179 432.695,349.513 437.5,350.5 Z"/></g>
<g><path style="opacity:1" fill="#0c0d0e" d="M 615.5,352.5 C 616.568,353.434 617.901,353.768 619.5,353.5C 619.5,358.833 619.5,364.167 619.5,369.5C 616.167,369.5 612.833,369.5 609.5,369.5C 604.5,369.5 599.5,369.5 594.5,369.5C 594.5,363.833 594.5,358.167 594.5,352.5C 601.5,352.5 608.5,352.5 615.5,352.5 Z"/></g>
<g><path style="opacity:1" fill="#424343" d="M 615.5,352.5 C 617.167,352.5 618.833,352.5 620.5,352.5C 620.5,358.5 620.5,364.5 620.5,370.5C 616.629,370.815 612.962,370.482 609.5,369.5C 612.833,369.5 616.167,369.5 619.5,369.5C 619.5,364.167 619.5,358.833 619.5,353.5C 617.901,353.768 616.568,353.434 615.5,352.5 Z"/></g>
<g><path style="opacity:1" fill="#0c0d0e" d="M 461.5,376.5 C 460.833,371.167 460.167,365.833 459.5,360.5C 461.397,359.195 463.731,358.529 466.5,358.5C 473.819,357.812 481.152,357.479 488.5,357.5C 488.197,362.43 488.531,367.263 489.5,372C 480.221,373.827 470.888,375.327 461.5,376.5 Z"/></g>
<g><path style="opacity:1" fill="#7d7d7c" d="M 459.5,360.5 C 460.167,365.833 460.833,371.167 461.5,376.5C 461.44,377.043 461.107,377.376 460.5,377.5C 459.505,371.872 459.171,366.206 459.5,360.5 Z"/></g>
<g><path style="opacity:1" fill="#64c4ef" d="M 437.5,350.5 C 438.488,355.64 438.821,360.974 438.5,366.5C 432.974,366.821 427.64,366.488 422.5,365.5C 427.5,365.5 432.5,365.5 437.5,365.5C 437.5,360.5 437.5,355.5 437.5,350.5 Z"/></g>
<g><path style="opacity:1" fill="#fbfbfb" d="M 688.5,595.5 C 689.167,603.833 689.833,612.167 690.5,620.5C 696.471,626.301 702.637,631.967 709,637.5C 709.333,616.167 709.667,594.833 710,573.5C 720.001,559.496 727.334,544.163 732,527.5C 745.332,524.361 758.832,522.028 772.5,520.5C 774.486,537.134 775.152,554.134 774.5,571.5C 758.894,574.156 743.227,576.49 727.5,578.5C 727.333,598.169 727.5,617.836 728,637.5C 734.333,631.833 740.667,626.167 747,620.5C 747.5,612.173 747.666,603.84 747.5,595.5C 763.823,593.085 780.157,590.751 796.5,588.5C 796.575,557.494 796.241,526.494 795.5,495.5C 775.419,498.069 755.419,501.069 735.5,504.5C 739.079,453.318 718.746,414.985 674.5,389.5C 673.336,382.524 673.169,375.524 674,368.5C 684.425,374.962 694.592,381.795 704.5,389C 734.701,413.566 751.035,445.399 753.5,484.5C 772.128,480.951 790.794,477.618 809.5,474.5C 809.5,517.833 809.5,561.167 809.5,604.5C 797.716,605.528 786.049,607.362 774.5,610C 756.929,630.229 739.429,650.395 722,670.5C 701.613,652.054 681.113,633.72 660.5,615.5C 670.605,609.793 679.938,603.126 688.5,595.5 Z"/></g>
<g><path style="opacity:1" fill="#501415" d="M 187.5,328.5 C 187.5,345.833 187.5,363.167 187.5,380.5C 193.026,380.179 198.36,380.512 203.5,381.5C 197.833,381.5 192.167,381.5 186.5,381.5C 186.17,363.659 186.503,345.992 187.5,328.5 Z"/></g>
<g><path style="opacity:1" fill="#0d0e0e" d="M 506.5,377.5 C 508.143,382.283 509.476,387.283 510.5,392.5C 510.167,393.167 509.833,393.833 509.5,394.5C 500.5,400.333 491.5,406.167 482.5,412C 481.365,412.749 480.365,412.583 479.5,411.5C 477.294,406.921 474.961,402.421 472.5,398C 483.479,390.508 494.813,383.675 506.5,377.5 Z"/></g>
<g><path style="opacity:1" fill="#0e0e0f" d="M 595.5,385.5 C 603.695,388.732 611.862,392.066 620,395.5C 620.831,401.859 620.664,408.193 619.5,414.5C 610.658,410.06 601.824,405.727 593,401.5C 593.249,396.086 594.082,390.753 595.5,385.5 Z"/></g>
<g><path style="opacity:1" fill="#0d0e0e" d="M 515.5,406.5 C 519.988,410.144 524.655,413.644 529.5,417C 522.289,427.255 514.956,437.422 507.5,447.5C 502.658,444.153 498.325,440.32 494.5,436C 501.704,426.298 508.704,416.465 515.5,406.5 Z"/></g>
<g><path style="opacity:1" fill="#949495" d="M 284.5,410.5 C 284.5,439.833 284.5,469.167 284.5,498.5C 290.167,498.5 295.833,498.5 301.5,498.5C 295.69,499.49 289.69,499.823 283.5,499.5C 283.169,469.662 283.502,439.995 284.5,410.5 Z"/></g>
<g><path style="opacity:1" fill="#0d0e0f" d="M 542.5,423.5 C 548.152,424.032 553.819,424.365 559.5,424.5C 559.5,435.5 559.5,446.5 559.5,457.5C 553.833,457.5 548.167,457.5 542.5,457.5C 542.5,446.167 542.5,434.833 542.5,423.5 Z"/></g>
<g><path style="opacity:1" fill="#0d0e0f" d="M 584.5,411.5 C 591.485,418.488 598.152,425.822 604.5,433.5C 600.761,437.568 596.428,440.901 591.5,443.5C 585.008,436.172 578.675,428.672 572.5,421C 576.975,418.35 580.975,415.183 584.5,411.5 Z"/></g>
<g><path style="opacity:1" fill="#811c1b" d="M 195.5,410.5 C 188.687,411.491 181.687,411.825 174.5,411.5C 174.5,428.5 174.5,445.5 174.5,462.5C 173.503,445.341 173.17,428.008 173.5,410.5C 180.833,410.5 188.167,410.5 195.5,410.5 Z"/></g>
<g><path style="opacity:1" fill="#2ab4f5" d="M 315.5,429.5 C 321.5,429.5 327.5,429.5 333.5,429.5C 333.5,435.167 333.5,440.833 333.5,446.5C 327.5,446.5 321.5,446.5 315.5,446.5C 315.5,440.833 315.5,435.167 315.5,429.5 Z"/></g>
<g><path style="opacity:1" fill="#d92423" d="M 373.5,446.5 C 373.5,451.833 373.5,457.167 373.5,462.5C 368.167,462.5 362.833,462.5 357.5,462.5C 357.5,457.167 357.5,451.833 357.5,446.5C 362.833,446.5 368.167,446.5 373.5,446.5 Z"/></g>
<g><path style="opacity:1" fill="#7b1b1a" d="M 207.5,438.5 C 203.5,438.5 199.5,438.5 195.5,438.5C 195.829,451.011 195.495,463.345 194.5,475.5C 194.5,462.833 194.5,450.167 194.5,437.5C 199.032,437.182 203.366,437.515 207.5,438.5 Z"/></g>
<g><path style="opacity:1" fill="#e39999" d="M 373.5,446.5 C 374.489,451.975 374.822,457.642 374.5,463.5C 368.642,463.822 362.975,463.489 357.5,462.5C 362.833,462.5 368.167,462.5 373.5,462.5C 373.5,457.167 373.5,451.833 373.5,446.5 Z"/></g>
<g><path style="opacity:1" fill="#4a4b4a" d="M 887.5,298.5 C 888.833,440.667 888.833,583.001 887.5,725.5C 886.378,726.63 885.044,727.297 883.5,727.5C 884.048,725.468 885.381,724.468 887.5,724.5C 887.5,582.5 887.5,440.5 887.5,298.5 Z"/></g>
<g><path style="opacity:1" fill="#1e1e1e" d="M 848.5,323.5 C 849.167,386.499 849.5,449.666 849.5,513C 849.5,576.504 848.833,639.67 847.5,702.5C 848.498,576.237 848.831,449.903 848.5,323.5 Z"/></g>
<g><path style="opacity:1" fill="#16b0f4" d="M 501.5,474.5 C 506.5,474.5 511.5,474.5 516.5,474.5C 516.5,480.167 516.5,485.833 516.5,491.5C 511.5,491.5 506.5,491.5 501.5,491.5C 501.5,485.833 501.5,480.167 501.5,474.5 Z"/></g>
<g><path style="opacity:1" fill="#cf2523" d="M 207.5,438.5 C 207.5,455.167 207.5,471.833 207.5,488.5C 200.5,488.5 193.5,488.5 186.5,488.5C 186.667,505.17 186.5,521.837 186,538.5C 182.19,542.4 178.19,546.066 174,549.5C 173.5,524.836 173.333,500.169 173.5,475.5C 180.5,475.5 187.5,475.5 194.5,475.5C 195.495,463.345 195.829,451.011 195.5,438.5C 199.5,438.5 203.5,438.5 207.5,438.5 Z"/></g>
<g><path style="opacity:1" fill="#434343" d="M 338.5,483.5 C 340.607,482.532 342.941,482.198 345.5,482.5C 345.5,488.5 345.5,494.5 345.5,500.5C 344.511,495.025 344.178,489.358 344.5,483.5C 342.5,483.5 340.5,483.5 338.5,483.5 Z"/></g>
<g><path style="opacity:1" fill="#fafafa" d="M 668.5,504.5 C 669.018,514.07 666.518,523.07 661,531.5C 649.966,545.944 636.132,556.944 619.5,564.5C 618.335,556.855 618.169,549.188 619,541.5C 635.836,529.511 652.336,517.178 668.5,504.5 Z"/></g>
<g><path style="opacity:1" fill="#d32523" d="M 194.5,501.5 C 198.833,501.5 203.167,501.5 207.5,501.5C 207.5,509.167 207.5,516.833 207.5,524.5C 203.5,524.5 199.5,524.5 195.5,524.5C 195.111,516.836 194.778,509.17 194.5,501.5 Z"/></g>
<g><path style="opacity:1" fill="#bbbcbb" d="M 511.5,529.5 C 507.167,529.5 502.833,529.5 498.5,529.5C 498.5,534.167 498.5,538.833 498.5,543.5C 497.513,538.695 497.179,533.695 497.5,528.5C 502.363,528.181 507.03,528.514 511.5,529.5 Z"/></g>
<g><path style="opacity:1" fill="#111112" d="M 511.5,529.5 C 511.5,534.5 511.5,539.5 511.5,544.5C 506.968,544.818 502.634,544.485 498.5,543.5C 498.5,538.833 498.5,534.167 498.5,529.5C 502.833,529.5 507.167,529.5 511.5,529.5 Z"/></g>
<g><path style="opacity:1" fill="#0b0c0d" d="M 403.5,546.5 C 404.495,558.655 404.829,570.989 404.5,583.5C 398.642,583.178 392.975,583.511 387.5,584.5C 386.507,592.65 386.174,600.983 386.5,609.5C 380.833,609.5 375.167,609.5 369.5,609.5C 369.5,600.833 369.5,592.167 369.5,583.5C 364.637,583.181 359.97,583.514 355.5,584.5C 347.008,592.492 338.675,600.658 330.5,609C 321.814,609.418 313.147,610.085 304.5,611C 314.196,621.03 324.196,630.697 334.5,640C 351.5,640.563 368.5,641.063 385.5,641.5C 385.666,648.508 385.5,655.508 385,662.5C 382.272,671.062 376.439,675.729 367.5,676.5C 359.515,675.801 351.515,675.301 343.5,675C 336.663,670.747 329.663,666.747 322.5,663C 304.832,645.665 287.498,627.998 270.5,610C 265.177,609.501 259.844,609.334 254.5,609.5C 254.333,640.502 254.5,671.502 255,702.5C 277.918,717.042 300.752,731.709 323.5,746.5C 320.149,753.886 315.816,760.552 310.5,766.5C 307.328,764.748 304.328,762.748 301.5,760.5C 304.029,757.136 306.363,753.636 308.5,750C 304,746.915 299.333,744.082 294.5,741.5C 292.451,744.968 289.951,747.968 287,750.5C 284.01,748.85 281.01,747.183 278,745.5C 277.333,744.167 277.333,742.833 278,741.5C 280.072,738.029 281.572,734.362 282.5,730.5C 278.989,728.915 275.322,728.415 271.5,729C 268.081,730.586 265.081,732.752 262.5,735.5C 239.669,720.584 216.669,705.917 193.5,691.5C 192.333,653.171 192.167,614.838 193,576.5C 199.167,570.667 205.333,564.833 211.5,559C 223.596,558.96 235.596,558.293 247.5,557C 255.167,549.333 262.833,541.667 270.5,534C 286.887,533.061 303.22,533.394 319.5,535C 329.003,541.675 335.003,550.675 337.5,562C 352.833,562.667 368.167,562.667 383.5,562C 392.378,559.615 399.044,554.448 403.5,546.5 Z"/></g>
<g><path style="opacity:1" fill="#535353" d="M 772.5,520.5 C 773.209,519.596 774.209,519.263 775.5,519.5C 775.83,537.008 775.497,554.341 774.5,571.5C 775.152,554.134 774.486,537.134 772.5,520.5 Z"/></g>
<g><path style="opacity:1" fill="#111212" d="M 754.5,540.5 C 756.5,540.5 758.5,540.5 760.5,540.5C 760.5,547.167 760.5,553.833 760.5,560.5C 753.101,560.511 745.767,561.178 738.5,562.5C 738.5,556.167 738.5,549.833 738.5,543.5C 743.961,542.492 749.294,541.492 754.5,540.5 Z"/></g>
<g><path style="opacity:1" fill="#b3b3b3" d="M 403.5,546.5 C 403.56,545.957 403.893,545.624 404.5,545.5C 405.825,558.327 405.825,570.994 404.5,583.5C 404.829,570.989 404.495,558.655 403.5,546.5 Z"/></g>
<g><path style="opacity:1" fill="#d32523" d="M 291.5,549.5 C 308.492,549.99 315.992,558.657 314,575.5C 305.453,589.848 294.453,592.182 281,582.5C 272.394,567.488 275.894,556.488 291.5,549.5 Z"/></g>
<g><path style="opacity:1" fill="#f9f9f9" d="M 231.5,576.5 C 241.5,576.5 251.5,576.5 261.5,576.5C 261.5,581.833 261.5,587.167 261.5,592.5C 254.159,592.334 246.826,592.5 239.5,593C 235,597.5 230.5,602 226,606.5C 225.5,618.829 225.333,631.162 225.5,643.5C 220.167,643.5 214.833,643.5 209.5,643.5C 209.333,628.496 209.5,613.496 210,598.5C 217.369,591.298 224.536,583.965 231.5,576.5 Z"/></g>
<g><path style="opacity:1" fill="#db7372" d="M 498.5,570.5 C 498.5,575.833 498.5,581.167 498.5,586.5C 503.167,586.5 507.833,586.5 512.5,586.5C 512.5,581.167 512.5,575.833 512.5,570.5C 513.489,575.975 513.822,581.642 513.5,587.5C 508.167,587.5 502.833,587.5 497.5,587.5C 497.178,581.642 497.511,575.975 498.5,570.5 Z"/></g>
<g><path style="opacity:1" fill="#d92321" d="M 498.5,570.5 C 503.167,570.5 507.833,570.5 512.5,570.5C 512.5,575.833 512.5,581.167 512.5,586.5C 507.833,586.5 503.167,586.5 498.5,586.5C 498.5,581.167 498.5,575.833 498.5,570.5 Z"/></g>
<g><path style="opacity:1" fill="#b9b9b8" d="M 355.5,584.5 C 359.97,583.514 364.637,583.181 369.5,583.5C 369.5,592.167 369.5,600.833 369.5,609.5C 369.5,609.833 369.5,610.167 369.5,610.5C 368.507,602.016 368.174,593.349 368.5,584.5C 364.167,584.5 359.833,584.5 355.5,584.5 Z"/></g>
<g><path style="opacity:1" fill="#6c6c6c" d="M 688.5,595.5 C 688.56,594.957 688.893,594.624 689.5,594.5C 690.498,603.141 690.831,611.808 690.5,620.5C 689.833,612.167 689.167,603.833 688.5,595.5 Z"/></g>
<g><path style="opacity:1" fill="#4e4e4e" d="M 387.5,584.5 C 387.5,593.167 387.5,601.833 387.5,610.5C 381.5,610.5 375.5,610.5 369.5,610.5C 369.5,610.167 369.5,609.833 369.5,609.5C 375.167,609.5 380.833,609.5 386.5,609.5C 386.174,600.983 386.507,592.65 387.5,584.5 Z"/></g>
<g><path style="opacity:1" fill="#12adf0" d="M 722.5,724.5 C 722.799,716.747 722.466,709.08 721.5,701.5C 724.731,699.78 727.564,697.447 730,694.5C 748.381,672.241 766.881,650.074 785.5,628C 793.172,626.75 800.839,625.583 808.5,624.5C 809.494,629.456 809.827,634.456 809.5,639.5C 804.121,640.006 798.787,640.839 793.5,642C 769.934,669.665 746.267,697.165 722.5,724.5 Z"/></g>
<g><path style="opacity:1" fill="#d32523" d="M 444.5,623.5 C 465.797,624.458 473.63,635.124 468,655.5C 461.758,664.363 453.258,667.529 442.5,665C 430.58,658.987 426.413,649.487 430,636.5C 433.329,630.43 438.162,626.096 444.5,623.5 Z"/></g>
<g><path style="opacity:1" fill="#f7f7f7" d="M 210.5,660.5 C 219.167,660.5 227.833,660.5 236.5,660.5C 236.5,665.5 236.5,670.5 236.5,675.5C 227.829,675.738 219.162,676.072 210.5,676.5C 210.5,671.167 210.5,665.833 210.5,660.5 Z"/></g>
<g><path style="opacity:1" fill="#11aef0" d="M 802.5,659.5 C 804.833,659.5 807.167,659.5 809.5,659.5C 809.666,666.175 809.5,672.842 809,679.5C 792.394,690.041 775.561,699.875 758.5,709C 771.689,693.312 784.689,677.479 797.5,661.5C 799.291,660.83 800.958,660.163 802.5,659.5 Z"/></g>
<g><path style="opacity:1" fill="#a0a0a0" d="M 273.5,663.5 C 272.507,671.65 272.174,679.983 272.5,688.5C 271.179,679.991 271.179,671.325 272.5,662.5C 273.107,662.624 273.44,662.957 273.5,663.5 Z"/></g>
<g><path style="opacity:1" fill="#f7f7f7" d="M 647.5,685.5 C 658.294,694.457 668.961,703.624 679.5,713C 664.963,728.535 650.796,744.369 637,760.5C 640.82,752.165 644.153,743.498 647,734.5C 650.081,718.169 650.248,701.836 647.5,685.5 Z"/></g>
<g><path style="opacity:1" fill="#12adf1" d="M 549.5,681.5 C 566.429,680.378 577.929,687.712 584,703.5C 586.897,721.554 579.73,733.388 562.5,739C 537.866,740.032 526.366,728.198 528,703.5C 531.384,692.346 538.55,685.012 549.5,681.5 Z"/></g>
<g><path style="opacity:1" fill="#da2624" d="M 387.5,697.5 C 392.833,697.5 398.167,697.5 403.5,697.5C 403.5,702.833 403.5,708.167 403.5,713.5C 398.167,713.5 392.833,713.5 387.5,713.5C 387.5,708.167 387.5,702.833 387.5,697.5 Z"/></g>
<g><path style="opacity:1" fill="#111212" d="M 424.5,717.5 C 429.5,717.5 434.5,717.5 439.5,717.5C 439.5,721.833 439.5,726.167 439.5,730.5C 434.5,730.5 429.5,730.5 424.5,730.5C 424.5,726.167 424.5,721.833 424.5,717.5 Z"/></g>
<g><path style="opacity:1" fill="#0a0b0b" d="M 462.5,717.5 C 467.5,717.5 472.5,717.5 477.5,717.5C 477.5,721.5 477.5,725.5 477.5,729.5C 472.5,729.5 467.5,729.5 462.5,729.5C 462.5,725.5 462.5,721.5 462.5,717.5 Z"/></g>
<g><path style="opacity:1" fill="#12aced" d="M 686.5,732.5 C 692.907,735.546 698.907,739.38 704.5,744C 700.973,746.591 697.306,748.591 693.5,750C 688.546,746.715 683.88,743.048 679.5,739C 682.331,737.334 684.664,735.168 686.5,732.5 Z"/></g>
<g><path style="opacity:1" fill="#858585" d="M 178.5,751.5 C 180.027,751.427 181.027,752.094 181.5,753.5C 179.973,753.573 178.973,752.906 178.5,751.5 Z"/></g>
<g><path style="opacity:1" fill="#585858" d="M 839.5,755.5 C 838.564,756.974 837.23,757.974 835.5,758.5C 835.5,757.5 835.5,756.5 835.5,755.5C 836.833,755.5 838.167,755.5 839.5,755.5 Z"/></g>
<g><path style="opacity:1" fill="#0c0d0e" d="M 336.5,755.5 C 350.698,763.519 364.531,772.186 378,781.5C 375.509,788.799 371.676,795.466 366.5,801.5C 361.918,798.959 357.418,796.293 353,793.5C 354.376,790.271 356.209,787.104 358.5,784C 353.628,780.967 348.628,778.133 343.5,775.5C 341.174,777.997 339.007,780.664 337,783.5C 333,780.833 329,778.167 325,775.5C 328.526,768.798 332.359,762.131 336.5,755.5 Z"/></g>
<g><path style="opacity:1" fill="#8b8b8c" d="M 192.5,760.5 C 194.027,760.427 195.027,761.094 195.5,762.5C 193.973,762.573 192.973,761.906 192.5,760.5 Z"/></g>
<g><path style="opacity:1" fill="#12acea" d="M 666.5,755.5 C 669.274,756.723 671.941,758.223 674.5,760C 675.451,760.718 675.617,761.551 675,762.5C 664.232,770.286 653.065,777.119 641.5,783C 650.04,773.963 658.373,764.796 666.5,755.5 Z"/></g>
<g><path style="opacity:1" fill="#0d0e0e" d="M 393.5,790.5 C 408.816,800.14 424.149,809.807 439.5,819.5C 435.665,826.508 431.331,833.174 426.5,839.5C 421.468,835.97 416.301,832.636 411,829.5C 410.333,828.5 410.333,827.5 411,826.5C 412.298,824.735 413.464,822.901 414.5,821C 410.036,817.596 405.37,814.43 400.5,811.5C 398.784,814.274 396.618,816.608 394,818.5C 389.412,816.246 385.079,813.579 381,810.5C 380.333,809.833 380.333,809.167 381,808.5C 385.423,802.645 389.59,796.645 393.5,790.5 Z"/></g>
<g><path style="opacity:1" fill="#12adee" d="M 603.5,795.5 C 606.14,795.954 608.473,797.121 610.5,799C 612.394,800.079 612.727,801.413 611.5,803C 594.663,813.584 577.996,824.418 561.5,835.5C 559.016,833.517 556.683,831.35 554.5,829C 571.011,817.97 587.345,806.804 603.5,795.5 Z"/></g>
<g><path style="opacity:1" fill="#565656" d="M 738.5,820.5 C 737.564,821.974 736.23,822.974 734.5,823.5C 734.5,822.5 734.5,821.5 734.5,820.5C 735.833,820.5 737.167,820.5 738.5,820.5 Z"/></g>
<g><path style="opacity:1" fill="#7c7d7c" d="M 325.5,845.5 C 327.027,845.427 328.027,846.094 328.5,847.5C 326.973,847.573 325.973,846.906 325.5,845.5 Z"/></g>
<g><path style="opacity:1" fill="#898989" d="M 328.5,847.5 C 330.027,847.427 331.027,848.094 331.5,849.5C 329.973,849.573 328.973,848.906 328.5,847.5 Z"/></g>
<g><path style="opacity:1" fill="#12aded" d="M 529.5,847.5 C 532.691,847.762 535.358,849.095 537.5,851.5C 528.672,857.748 519.672,863.748 510.5,869.5C 508.5,867.833 506.5,866.167 504.5,864.5C 512.689,858.576 521.022,852.909 529.5,847.5 Z"/></g>
<g><path style="opacity:1" fill="#7a797a" d="M 358.5,866.5 C 360.027,866.427 361.027,867.094 361.5,868.5C 359.973,868.573 358.973,867.906 358.5,866.5 Z"/></g>
<g><path style="opacity:1" fill="#797a79" d="M 380.5,880.5 C 382.027,880.427 383.027,881.094 383.5,882.5C 381.973,882.573 380.973,881.906 380.5,880.5 Z"/></g>
<g><path style="opacity:1" fill="#8d8d8c" d="M 405.5,896.5 C 407.027,896.427 408.027,897.094 408.5,898.5C 406.973,898.573 405.973,897.906 405.5,896.5 Z"/></g>
<g><path style="opacity:1" fill="#7d7d7d" d="M 430.5,912.5 C 432.027,912.427 433.027,913.094 433.5,914.5C 431.973,914.573 430.973,913.906 430.5,912.5 Z"/></g>
<g><path style="opacity:1" fill="#7c7d7c" d="M 444.5,921.5 C 446.027,921.427 447.027,922.094 447.5,923.5C 445.973,923.573 444.973,922.906 444.5,921.5 Z"/></g>
<g><path style="opacity:1" fill="#7c7b7b" d="M 470.5,938.5 C 472.027,938.427 473.027,939.094 473.5,940.5C 471.973,940.573 470.973,939.906 470.5,938.5 Z"/></g>
<g><path style="opacity:1" fill="#7d7d7d" d="M 473.5,940.5 C 475.027,940.427 476.027,941.094 476.5,942.5C 474.973,942.573 473.973,941.906 473.5,940.5 Z"/></g>
<g><path style="opacity:1" fill="#808181" d="M 479.5,944.5 C 481.027,944.427 482.027,945.094 482.5,946.5C 480.973,946.573 479.973,945.906 479.5,944.5 Z"/></g>
<g><path style="opacity:1" fill="#888887" d="M 508.5,963.5 C 510.027,963.427 511.027,964.094 511.5,965.5C 509.973,965.573 508.973,964.906 508.5,963.5 Z"/></g>
</svg>
