<svg xmlns="http://www.w3.org/2000/svg" viewBox="0 0 320 240" role="img" aria-labelledby="faqTitle faqDesc">
  <title id="faqTitle">Preguntas frecuentes en camino</title>
  <desc id="faqDesc">Tarjetas con íconos de signos de interrogación y engranes listos para responder dudas.</desc>
  <defs>
    <linearGradient id="card" x1="0%" y1="0%" x2="100%" y2="100%">
      <stop offset="0%" stop-color="#1f2937" />
      <stop offset="100%" stop-color="#0f172a" />
    </linearGradient>
    <linearGradient id="accent" x1="0%" y1="0%" x2="100%" y2="0%">
      <stop offset="0%" stop-color="#22d3ee" />
      <stop offset="100%" stop-color="#818cf8" />
    </linearGradient>
  </defs>
  <rect width="320" height="240" rx="24" fill="#010b19" />
  <g transform="translate(40 50)">
    <rect x="0" y="32" width="160" height="120" rx="18" fill="url(#card)" stroke="#1e293b" stroke-width="4" />
    <rect x="80" y="0" width="160" height="120" rx="18" fill="url(#card)" stroke="#1e293b" stroke-width="4" transform="rotate(6 160 60)" />
    <g transform="translate(26 56)" fill="#e2e8f0" opacity="0.8">
      <rect x="0" y="0" width="96" height="12" rx="6" />
      <rect x="0" y="20" width="110" height="12" rx="6" />
      <rect x="0" y="40" width="88" height="12" rx="6" />
    </g>
    <g transform="translate(126 14)">
      <circle cx="34" cy="34" r="34" fill="#0f172a" stroke="url(#accent)" stroke-width="6" />
      <path d="M34 16c8 0 14 5 14 12 0 12-18 12-18 24" fill="none" stroke="#22d3ee" stroke-width="4" stroke-linecap="round" />
      <circle cx="34" cy="72" r="4" fill="#22d3ee" />
    </g>
    <g transform="translate(164 98)" stroke="#38bdf8" stroke-width="6" stroke-linecap="round">
      <path d="M0 0h28" />
      <path d="M14 -14v28" />
    </g>
  </g>
  <g fill="#facc15" opacity="0.8">
    <circle cx="64" cy="48" r="5" />
    <circle cx="110" cy="32" r="4" />
    <circle cx="262" cy="46" r="6" />
  </g>
</svg>
