<svg viewBox="0 0 200 200" xmlns="http://www.w3.org/2000/svg" fill="none">
  <defs>
    <linearGradient id="grad-faq" x1="0%" y1="0%" x2="100%" y2="100%">
      <stop offset="0%" style="stop-color:#515BD4;stop-opacity:1" />
      <stop offset="100%" style="stop-color:#06B6D4;stop-opacity:1" />
    </linearGradient>
  </defs>
  
  <!-- Burbuja de ayuda -->
  <g class="help-bubble">
    <path d="M60 70 Q60 50 80 50 L120 50 Q140 50 140 70 L140 100 Q140 120 120 120 L85 120 L75 135 L75 120 Q60 120 60 100 Z" fill="url(#grad-faq)" stroke="#E8EDF4" stroke-width="2.5" opacity="0.95">
      <animate attributeName="opacity" values="0.95;0.85;0.95" dur="3s" repeatCount="indefinite"/>
    </path>
    
    <!-- Signo de interrogación -->
    <g transform="translate(100, 75)">
      <path d="M-8 0 Q-8 -8 0 -8 Q8 -8 8 0 Q8 5 0 8 L0 15" stroke="#E8EDF4" stroke-width="3" stroke-linecap="round" fill="none">
        <animate attributeName="opacity" values="1;0.6;1" dur="2s" repeatCount="indefinite"/>
      </path>
      <circle cx="0" cy="22" r="2.5" fill="#E8EDF4">
        <animate attributeName="r" values="2.5;3;2.5" dur="2s" repeatCount="indefinite"/>
      </circle>
    </g>
  </g>
  
  <!-- Lista FAQ -->
  <g class="faq-items" opacity="0.7">
    <!-- Item 1 -->
    <g transform="translate(30, 150)">
      <circle cx="0" cy="0" r="4" fill="#06B6D4"/>
      <rect x="10" y="-2" width="60" height="4" rx="2" fill="#E8EDF4" opacity="0.4"/>
    </g>
    
    <!-- Item 2 -->
    <g transform="translate(30, 165)">
      <circle cx="0" cy="0" r="4" fill="#10B981"/>
      <rect x="10" y="-2" width="50" height="4" rx="2" fill="#E8EDF4" opacity="0.4"/>
    </g>
    
    <!-- Item 3 -->
    <g transform="translate(30, 180)">
      <circle cx="0" cy="0" r="4" fill="#515BD4"/>
      <rect x="10" y="-2" width="55" height="4" rx="2" fill="#E8EDF4" opacity="0.4"/>
    </g>
  </g>
  
  <!-- Libro de ayuda -->
  <g transform="translate(130, 145)">
    <rect x="0" y="0" width="35" height="45" rx="3" fill="url(#grad-faq)" stroke="#E8EDF4" stroke-width="2" opacity="0.9"/>
    <line x1="17.5" y1="5" x2="17.5" y2="40" stroke="#E8EDF4" stroke-width="1.5" opacity="0.4"/>
    <rect x="8" y="12" width="20" height="2" rx="1" fill="#E8EDF4" opacity="0.5"/>
    <rect x="8" y="18" width="20" height="2" rx="1" fill="#E8EDF4" opacity="0.5"/>
    <rect x="8" y="24" width="15" height="2" rx="1" fill="#E8EDF4" opacity="0.5"/>
  </g>
  
  <!-- Iconos de ayuda -->
  <circle cx="45" cy="40" r="8" fill="none" stroke="#10B981" stroke-width="2" opacity="0.6">
    <animate attributeName="r" values="8;10;8" dur="2.5s" repeatCount="indefinite"/>
  </circle>
  <path d="M155 35 L160 45 L165 35" stroke="#FEDA77" stroke-width="2" stroke-linecap="round" fill="none" opacity="0.6">
    <animateTransform attributeName="transform" type="translate" values="0,0; 0,3; 0,0" dur="2s" repeatCount="indefinite"/>
  </path>
  
  <!-- Partículas -->
  <circle cx="170" cy="100" r="2" fill="#515BD4" opacity="0.5">
    <animate attributeName="cy" values="100;80;100" dur="4s" repeatCount="indefinite"/>
  </circle>
</svg>