<svg xmlns="http://www.w3.org/2000/svg" viewBox="0 0 320 240" role="img" aria-labelledby="promoTitle promoDesc">
  <title id="promoTitle">Promociones próximamente</title>
  <desc id="promoDesc">Ticker luminoso con porcentajes y confeti anunciando promociones en preparación.</desc>
  <defs>
    <linearGradient id="frame" x1="0%" y1="0%" x2="100%" y2="0%">
      <stop offset="0%" stop-color="#475569" />
      <stop offset="100%" stop-color="#1e293b" />
    </linearGradient>
    <linearGradient id="ticker" x1="0%" y1="0%" x2="100%" y2="0%">
      <stop offset="0%" stop-color="#0ea5e9" />
      <stop offset="100%" stop-color="#f43f5e" />
    </linearGradient>
  </defs>
  <rect width="320" height="240" rx="24" fill="#020617" />
  <rect x="32" y="56" width="256" height="128" rx="20" fill="url(#frame)" stroke="#0f172a" stroke-width="4" />
  <rect x="44" y="112" width="232" height="48" rx="14" fill="#0f172a" stroke="#0ea5e9" stroke-dasharray="12 10" stroke-width="4" />
  <g font-family="'Segoe UI', sans-serif" font-size="26" text-anchor="middle" fill="#e2e8f0">
    <text x="160" y="98">Descuentos en impresión 3D</text>
  </g>
  <g font-family="'Segoe UI', sans-serif" font-size="28" font-weight="700" fill="#f8fafc">
    <text x="60" y="140">%</text>
    <text x="126" y="140">FLASH</text>
    <text x="208" y="140">PETG</text>
    <text x="264" y="140">🔥</text>
  </g>
  <rect x="56" y="148" width="208" height="24" rx="12" fill="url(#ticker)">
    <animate attributeName="x" values="56;-56" dur="6s" repeatCount="indefinite" />
  </rect>
  <g fill="#38bdf8" opacity="0.7">
    <circle cx="54" cy="50" r="4" />
    <circle cx="108" cy="34" r="6" />
    <circle cx="274" cy="44" r="5" />
  </g>
  <g fill="#f43f5e" opacity="0.65">
    <rect x="62" y="190" width="10" height="18" rx="3" transform="rotate(-12 67 199)" />
    <rect x="160" y="188" width="12" height="20" rx="4" transform="rotate(8 166 198)" />
    <rect x="250" y="190" width="9" height="16" rx="3" transform="rotate(-16 255 198)" />
  </g>
</svg>
