<svg viewBox="0 0 200 200" xmlns="http://www.w3.org/2000/svg" fill="none">
  <defs>
    <linearGradient id="grad-catalog" x1="0%" y1="0%" x2="100%" y2="100%">
      <stop offset="0%" style="stop-color:#06B6D4;stop-opacity:1" />
      <stop offset="100%" style="stop-color:#10B981;stop-opacity:1" />
    </linearGradient>
  </defs>
  
  <!-- Catálogo de productos -->
  <g class="catalog-grid">
    <!-- Tarjeta 1 -->
    <rect x="40" y="60" width="50" height="60" rx="6" fill="url(#grad-catalog)" stroke="#E8EDF4" stroke-width="2" opacity="0.95">
      <animate attributeName="opacity" values="0.95;0.7;0.95" dur="3s" repeatCount="indefinite"/>
    </rect>
    <rect x="45" y="70" width="40" height="30" rx="3" fill="#E8EDF4" opacity="0.3"/>
    <rect x="45" y="105" width="30" height="3" rx="1.5" fill="#E8EDF4" opacity="0.6"/>
    <rect x="45" y="110" width="25" height="3" rx="1.5" fill="#E8EDF4" opacity="0.4"/>
    
    <!-- Tarjeta 2 -->
    <rect x="110" y="60" width="50" height="60" rx="6" fill="url(#grad-catalog)" stroke="#E8EDF4" stroke-width="2" opacity="0.95">
      <animate attributeName="opacity" values="0.95;0.7;0.95" dur="3s" begin="0.5s" repeatCount="indefinite"/>
    </rect>
    <rect x="115" y="70" width="40" height="30" rx="3" fill="#E8EDF4" opacity="0.3"/>
    <rect x="115" y="105" width="30" height="3" rx="1.5" fill="#E8EDF4" opacity="0.6"/>
    <rect x="115" y="110" width="25" height="3" rx="1.5" fill="#E8EDF4" opacity="0.4"/>
    
    <!-- Tarjeta 3 -->
    <rect x="75" y="130" width="50" height="60" rx="6" fill="url(#grad-catalog)" stroke="#E8EDF4" stroke-width="2" opacity="0.95">
      <animate attributeName="opacity" values="0.95;0.7;0.95" dur="3s" begin="1s" repeatCount="indefinite"/>
    </rect>
    <rect x="80" y="140" width="40" height="30" rx="3" fill="#E8EDF4" opacity="0.3"/>
    <rect x="80" y="175" width="30" height="3" rx="1.5" fill="#E8EDF4" opacity="0.6"/>
    <rect x="80" y="180" width="25" height="3" rx="1.5" fill="#E8EDF4" opacity="0.4"/>
  </g>
  
  <!-- Icono de catálogo central -->
  <g transform="translate(90, 30)">
    <rect x="0" y="0" width="20" height="24" rx="2" fill="url(#grad-catalog)" stroke="#E8EDF4" stroke-width="2" opacity="0.95"/>
    <line x1="4" y1="6" x2="16" y2="6" stroke="#E8EDF4" stroke-width="1.5" opacity="0.6"/>
    <line x1="4" y1="11" x2="16" y2="11" stroke="#E8EDF4" stroke-width="1.5" opacity="0.6"/>
    <line x1="4" y1="16" x2="12" y2="16" stroke="#E8EDF4" stroke-width="1.5" opacity="0.6"/>
  </g>
  
  <!-- Partículas flotantes -->
  <circle cx="30" cy="100" r="2" fill="#06B6D4" opacity="0.5">
    <animate attributeName="cy" values="100;80;100" dur="4s" repeatCount="indefinite"/>
  </circle>
  <circle cx="170" cy="120" r="2" fill="#10B981" opacity="0.5">
    <animate attributeName="cy" values="120;100;120" dur="3.5s" repeatCount="indefinite"/>
  </circle>
</svg>