<svg xmlns="http://www.w3.org/2000/svg" viewBox="0 0 200 200" role="img" aria-labelledby="title desc">
  <title id="title">Colgante Claridad</title>
  <desc id="desc">Colgante translúcido suspendido sobre un soporte suave con destellos de luz.</desc>
  <defs>
    <linearGradient id="bg" x1="0%" y1="0%" x2="100%" y2="100%">
      <stop offset="0%" stop-color="#dff9ff"/>
      <stop offset="100%" stop-color="#effdff"/>
    </linearGradient>
    <radialGradient id="halo" cx="50%" cy="45%" r="60%">
      <stop offset="0%" stop-color="#ffffff" stop-opacity="0.95"/>
      <stop offset="80%" stop-color="#ffffff" stop-opacity="0.35"/>
      <stop offset="100%" stop-color="#ffffff" stop-opacity="0"/>
    </radialGradient>
    <linearGradient id="glass" x1="0%" y1="0%" x2="100%" y2="100%">
      <stop offset="0%" stop-color="#2f80ff"/>
      <stop offset="100%" stop-color="#00a6a8"/>
    </linearGradient>
  </defs>
  <rect width="200" height="200" rx="32" fill="url(#bg)"/>
  <ellipse cx="100" cy="150" rx="48" ry="18" fill="#0f172a" opacity="0.1"/>
  <circle cx="100" cy="88" r="70" fill="url(#halo)"/>
  <path d="M100 26v26" stroke="#2f80ff" stroke-width="6" stroke-linecap="round" opacity="0.7"/>
  <circle cx="100" cy="26" r="8" fill="#eb3b5a"/>
  <path d="M70 88a30 30 0 0 1 60 0l-6 42H76z" fill="#ffffff" opacity="0.6"/>
  <path d="M78 90a22 22 0 0 1 44 0l-4 30H82z" fill="#ffffff" opacity="0.9"/>
  <circle cx="100" cy="84" r="26" fill="url(#glass)" opacity="0.45"/>
  <circle cx="100" cy="84" r="18" fill="#ffffff" opacity="0.65"/>
  <path d="M78 132c8 8 22 12 22 12s14-4 22-12" stroke="#00a6a8" stroke-width="4" stroke-linecap="round" opacity="0.4"/>
  <path d="M88 44c6-4 16-6 24-2" stroke="#2f80ff" stroke-width="3" stroke-linecap="round" opacity="0.35"/>
  <path d="M118 44c3 4 6 10 4 14" stroke="#00a6a8" stroke-width="3" stroke-linecap="round" opacity="0.35"/>
</svg>
