<svg xmlns="http://www.w3.org/2000/svg" viewBox="0 0 200 200" role="img" aria-labelledby="title desc">
  <title id="title">Stickers laminados</title>
  <desc id="desc">Conjunto de stickers holográficos con etiqueta QR y sobre protector.</desc>
  <defs>
    <linearGradient id="bg" x1="0%" y1="0%" x2="100%" y2="100%">
      <stop offset="0%" stop-color="#f4f1ff"/>
      <stop offset="100%" stop-color="#efe6ff"/>
    </linearGradient>
    <linearGradient id="foil" x1="0%" y1="0%" x2="100%" y2="100%">
      <stop offset="0%" stop-color="#eb3b5a"/>
      <stop offset="35%" stop-color="#ff9a3d"/>
      <stop offset="70%" stop-color="#2f80ff"/>
      <stop offset="100%" stop-color="#00a6a8"/>
    </linearGradient>
  </defs>
  <rect width="200" height="200" rx="32" fill="url(#bg)"/>
  <rect x="46" y="56" width="108" height="108" rx="28" fill="#ffffff"/>
  <rect x="56" y="66" width="88" height="88" rx="24" fill="#0f172a" opacity="0.08"/>
  <rect x="66" y="76" width="68" height="68" rx="20" fill="url(#foil)" opacity="0.8"/>
  <rect x="84" y="94" width="32" height="32" rx="10" fill="#ffffff" opacity="0.8"/>
  <rect x="92" y="102" width="16" height="16" rx="4" fill="#0f172a" opacity="0.18"/>
  <path d="M112 88l22-22" stroke="#eb3b5a" stroke-width="6" stroke-linecap="round" opacity="0.7"/>
  <path d="M88 144l-22 22" stroke="#2f80ff" stroke-width="6" stroke-linecap="round" opacity="0.7"/>
  <rect x="50" y="54" width="32" height="20" rx="8" fill="#ffffff" opacity="0.85"/>
  <path d="M58 66h16" stroke="#2f80ff" stroke-width="4" stroke-linecap="round"/>
  <rect x="120" y="54" width="32" height="20" rx="8" fill="#ffffff" opacity="0.85"/>
  <path d="M132 62h8" stroke="#00a6a8" stroke-width="4" stroke-linecap="round"/>
  <rect x="132" y="122" width="30" height="40" rx="10" fill="#ffffff" opacity="0.9"/>
  <rect x="138" y="132" width="18" height="20" rx="6" fill="#0f172a" opacity="0.16"/>
  <path d="M144 126l12-12" stroke="#eb3b5a" stroke-width="4" stroke-linecap="round" opacity="0.6"/>
</svg>
