<svg xmlns="http://www.w3.org/2000/svg" viewBox="0 0 200 200" role="img" aria-labelledby="title desc">
  <title id="title">Hub Utilitario Flux</title>
  <desc id="desc">Módulos intercambiables con bandejas magnéticas, especiero y charola inteligente.</desc>
  <defs>
    <linearGradient id="bg" x1="0%" y1="0%" x2="100%" y2="100%">
      <stop offset="0%" stop-color="#fff2e6"/>
      <stop offset="60%" stop-color="#ffe9d7"/>
      <stop offset="100%" stop-color="#ffe0cc"/>
    </linearGradient>
    <linearGradient id="module" x1="0%" y1="0%" x2="100%" y2="0%">
      <stop offset="0%" stop-color="#2f80ff"/>
      <stop offset="100%" stop-color="#00a6a8"/>
    </linearGradient>
    <linearGradient id="tray" x1="0%" y1="0%" x2="0%" y2="100%">
      <stop offset="0%" stop-color="#ffffff"/>
      <stop offset="100%" stop-color="#f5f0ff"/>
    </linearGradient>
    <pattern id="grid" width="12" height="12" patternUnits="userSpaceOnUse">
      <path d="M12 0H0V12" fill="none" stroke="#00a6a8" stroke-width="0.6" opacity="0.18"/>
    </pattern>
  </defs>
  <rect width="200" height="200" rx="32" fill="url(#bg)"/>
  <rect x="24" y="36" width="152" height="128" rx="28" fill="url(#grid)" opacity="0.35"/>
  <ellipse cx="100" cy="160" rx="60" ry="18" fill="#0f172a" opacity="0.12"/>
  <g transform="translate(44 78)">
    <rect width="112" height="68" rx="22" fill="#0f172a" opacity="0.08"/>
    <rect x="8" y="-18" width="64" height="44" rx="14" fill="#ffffff"/>
    <rect x="14" y="-10" width="52" height="28" rx="12" fill="#0f172a" opacity="0.08"/>
    <rect x="18" y="-6" width="44" height="18" rx="9" fill="url(#module)" opacity="0.65"/>
    <rect x="76" y="-12" width="28" height="56" rx="12" fill="#ffffff"/>
    <rect x="82" y="-6" width="16" height="26" rx="8" fill="#2f80ff" opacity="0.5"/>
    <rect x="6" y="28" width="100" height="30" rx="14" fill="url(#tray)"/>
    <rect x="16" y="36" width="34" height="14" rx="7" fill="#0f172a" opacity="0.16"/>
    <rect x="60" y="36" width="34" height="14" rx="7" fill="#0f172a" opacity="0.18"/>
    <path d="M24 12h64" stroke="#00a6a8" stroke-width="3" stroke-linecap="round" opacity="0.5"/>
    <g fill="none" stroke-linecap="round" stroke-width="2">
      <path d="M20 44h12" stroke="#2f80ff" opacity="0.5"/>
      <path d="M68 44h12" stroke="#eb3b5a" opacity="0.6"/>
      <path d="M92 16v12" stroke="#eb3b5a" opacity="0.5"/>
    </g>
    <circle cx="40" cy="12" r="8" fill="#eb3b5a" opacity="0.75"/>
    <circle cx="96" cy="12" r="8" fill="#2f80ff" opacity="0.55"/>
  </g>
  <path d="M60 60h80" stroke="#00a6a8" stroke-width="3" stroke-linecap="round" opacity="0.35"/>
  <path d="M60 60l-10-10" stroke="#2f80ff" stroke-width="3" stroke-linecap="round" opacity="0.45"/>
  <path d="M140 60l10-10" stroke="#2f80ff" stroke-width="3" stroke-linecap="round" opacity="0.45"/>
</svg>
