<svg xmlns="http://www.w3.org/2000/svg" viewBox="0 0 240 240" role="img" aria-labelledby="title desc">
  <title id="title">Producto genérico en impresión 3D</title>
  <desc id="desc">Ilustración de una pieza 3D en tonos morado y azul sobre una base circular.</desc>
  <defs>
    <linearGradient id="gradientBody" x1="0%" y1="0%" x2="100%" y2="100%">
      <stop offset="0%" stop-color="#7d4cff" />
      <stop offset="100%" stop-color="#3ac7ff" />
    </linearGradient>
    <radialGradient id="gradientShadow" cx="50%" cy="50%" r="50%">
      <stop offset="0%" stop-color="rgba(0,0,0,0.25)" />
      <stop offset="100%" stop-color="rgba(0,0,0,0)" />
    </radialGradient>
  </defs>
  <rect width="240" height="240" rx="28" fill="#0d0f1f" />
  <ellipse cx="120" cy="186" rx="70" ry="18" fill="url(#gradientShadow)" />
  <path d="M70 72h100a6 6 0 0 1 6 6v80a6 6 0 0 1-6 6H70a6 6 0 0 1-6-6V78a6 6 0 0 1 6-6z" fill="url(#gradientBody)" />
  <path d="M86 100l34-24 34 24v48H86z" fill="#1c1f3a" opacity="0.35" />
  <path d="M86 100l34-24 34 24-34 24z" fill="#f5f5ff" opacity="0.15" />
  <circle cx="120" cy="108" r="22" fill="#f1f6ff" opacity="0.18" />
  <path d="M110 108h20" stroke="#f1f6ff" stroke-width="6" stroke-linecap="round" opacity="0.4" />
  <path d="M102 124h36" stroke="#f1f6ff" stroke-width="6" stroke-linecap="round" opacity="0.25" />
  <rect x="88" y="152" width="64" height="12" rx="6" fill="#0f1533" opacity="0.6" />
</svg>
