<?xml version="1.0" encoding="UTF-8"?>
<svg xmlns="http://www.w3.org/2000/svg" viewBox="0 0 160 160" role="img" aria-labelledby="product-clip-multi-title product-clip-multi-desc">
  <title id="product-clip-multi-title">Clip multiusos</title>
  <desc id="product-clip-multi-desc">Clip multiusos impreso en 3D para asegurar cables o documentos.</desc>
  <defs>
    <linearGradient id="product-clip-multi-bg" x1="0%" y1="0%" x2="100%" y2="100%">
      <stop offset="0%" stop-color="#071321" />
      <stop offset="100%" stop-color="#0b1f32" />
    </linearGradient>
    <radialGradient id="product-clip-multi-glow" cx="50%" cy="48%" r="62%">
      <stop offset="0%" stop-color="#7c3aed" stop-opacity="0.9" />
      <stop offset="60%" stop-color="#090f24" stop-opacity="0.25" />
      <stop offset="100%" stop-color="#090f24" stop-opacity="0" />
    </radialGradient>
    <pattern id="product-clip-multi-grid" width="20" height="20" patternUnits="userSpaceOnUse">
      <path d="M20 0H0V20" fill="none" stroke="#a855f7" stroke-width="0.6" opacity="0.18" />
    </pattern>
    <filter id="product-clip-multi-sparkle">
      <feGaussianBlur stdDeviation="2" result="blur" />
      <feMerge>
        <feMergeNode in="blur" />
        <feMergeNode in="SourceGraphic" />
      </feMerge>
    </filter>
  </defs>
  <rect width="160" height="160" rx="20" fill="url(#product-clip-multi-bg)" />
  <rect width="160" height="160" rx="20" fill="url(#product-clip-multi-grid)" opacity="0.15" />
  <ellipse cx="80" cy="88" rx="68" ry="50" fill="url(#product-clip-multi-glow)" opacity="0.4">
    <animate attributeName="opacity" values="0.35;0.55;0.35" dur="6s" repeatCount="indefinite" />
  </ellipse>
  <g filter="url(#product-clip-multi-sparkle)">
    <g transform="translate(80 94)">
      <path d="M-32 -32 H20 C32 -32 40 -24 40 -12 V28 C40 40 32 48 20 48 H-12 C-24 48 -32 40 -32 28 Z" fill="#102033" stroke="#c4b5fd" stroke-width="3" />
      <path d="M-26 -24 H14 C22 -24 28 -18 28 -10 V24 C28 32 22 38 14 38 H-6 C-14 38 -20 32 -20 24 V-10 C-20 -18 -14 -24 -6 -24" stroke="#a855f7" stroke-width="6" fill="none" />
      <path d="M-18 14 H10" stroke="#f472b6" stroke-width="4" stroke-linecap="round" opacity="0.6" />
      <path d="M-18 0 H18" stroke="#f472b6" stroke-width="4" stroke-linecap="round" opacity="0.35" />
    </g>
  </g>
  <g class="sparkles" fill="#e9d5ff" opacity="0.6">
    <circle cx="24" cy="32" r="2">
      <animate attributeName="opacity" values="0;1;0" dur="3.8s" repeatCount="indefinite" />
      <animate attributeName="r" values="1;3;1" dur="3.8s" repeatCount="indefinite" />
    </circle>
    <circle cx="140" cy="28" r="2.4">
      <animate attributeName="opacity" values="0;0.8;0" dur="4.6s" repeatCount="indefinite" />
      <animate attributeName="r" values="1.5;3;1.5" dur="4.6s" repeatCount="indefinite" />
    </circle>
    <circle cx="132" cy="134" r="2">
      <animate attributeName="opacity" values="0;1;0" dur="5s" repeatCount="indefinite" />
      <animate attributeName="r" values="1;2.6;1" dur="5s" repeatCount="indefinite" />
    </circle>
  </g>
</svg>
