<?xml version="1.0" encoding="UTF-8"?>
<svg xmlns="http://www.w3.org/2000/svg" viewBox="0 0 160 160" role="img" aria-labelledby="product-figura-calaverita-title product-figura-calaverita-desc">
  <title id="product-figura-calaverita-title">Figura Calaverita</title>
  <desc id="product-figura-calaverita-desc">Calaverita decorativa estilo Día de Muertos con detalles suaves.</desc>
  <defs>
    <linearGradient id="product-figura-calaverita-bg" x1="0%" y1="0%" x2="100%" y2="100%">
      <stop offset="0%" stop-color="#1f0d19" />
      <stop offset="100%" stop-color="#290f2b" />
    </linearGradient>
    <radialGradient id="product-figura-calaverita-glow" cx="50%" cy="48%" r="62%">
      <stop offset="0%" stop-color="#f472b6" stop-opacity="0.9" />
      <stop offset="60%" stop-color="#160715" stop-opacity="0.25" />
      <stop offset="100%" stop-color="#160715" stop-opacity="0" />
    </radialGradient>
    <pattern id="product-figura-calaverita-grid" width="20" height="20" patternUnits="userSpaceOnUse">
      <path d="M20 0H0V20" fill="none" stroke="#fb7185" stroke-width="0.6" opacity="0.18" />
    </pattern>
    <filter id="product-figura-calaverita-sparkle">
      <feGaussianBlur stdDeviation="2" result="blur" />
      <feMerge>
        <feMergeNode in="blur" />
        <feMergeNode in="SourceGraphic" />
      </feMerge>
    </filter>
  </defs>
  <rect width="160" height="160" rx="20" fill="url(#product-figura-calaverita-bg)" />
  <rect width="160" height="160" rx="20" fill="url(#product-figura-calaverita-grid)" opacity="0.15" />
  <ellipse cx="80" cy="88" rx="68" ry="50" fill="url(#product-figura-calaverita-glow)" opacity="0.4">
    <animate attributeName="opacity" values="0.35;0.55;0.35" dur="6s" repeatCount="indefinite" />
  </ellipse>
  <g filter="url(#product-figura-calaverita-sparkle)">
    <g transform="translate(80 88)">
      <path d="M0 -48 C32 -48 40 -22 40 0 C40 20 26 32 16 32 L10 44 H-10 L-16 32 C-26 32 -40 20 -40 0 C-40 -22 -32 -48 0 -48" fill="#fff7f2" stroke="#fb7185" stroke-width="2.8" />
      <circle cx="-12" cy="-12" r="8" fill="#0f172a" />
      <circle cx="12" cy="-12" r="8" fill="#0f172a" />
      <path d="M-18 8 Q0 26 18 8" stroke="#fbcfe8" stroke-width="4" stroke-linecap="round" />
      <path d="M-18 -28 L-22 -34" stroke="#fbcfe8" stroke-width="3" />
      <path d="M18 -28 L22 -34" stroke="#fbcfe8" stroke-width="3" />
      <circle cx="0" cy="4" r="6" fill="#f97316" opacity="0.85" />
    </g>
  </g>
  <g class="sparkles" fill="#fecdd3" opacity="0.6">
    <circle cx="24" cy="32" r="2">
      <animate attributeName="opacity" values="0;1;0" dur="3.8s" repeatCount="indefinite" />
      <animate attributeName="r" values="1;3;1" dur="3.8s" repeatCount="indefinite" />
    </circle>
    <circle cx="140" cy="28" r="2.4">
      <animate attributeName="opacity" values="0;0.8;0" dur="4.6s" repeatCount="indefinite" />
      <animate attributeName="r" values="1.5;3;1.5" dur="4.6s" repeatCount="indefinite" />
    </circle>
    <circle cx="132" cy="134" r="2">
      <animate attributeName="opacity" values="0;1;0" dur="5s" repeatCount="indefinite" />
      <animate attributeName="r" values="1;2.6;1" dur="5s" repeatCount="indefinite" />
    </circle>
  </g>
</svg>
