<?xml version="1.0" encoding="UTF-8"?>
<svg xmlns="http://www.w3.org/2000/svg" viewBox="0 0 160 160" role="img" aria-labelledby="product-gancho-universal-title product-gancho-universal-desc">
  <title id="product-gancho-universal-title">Gancho universal</title>
  <desc id="product-gancho-universal-desc">Gancho universal de alta resistencia para colgar accesorios.</desc>
  <defs>
    <linearGradient id="product-gancho-universal-bg" x1="0%" y1="0%" x2="100%" y2="100%">
      <stop offset="0%" stop-color="#041719" />
      <stop offset="100%" stop-color="#0a2824" />
    </linearGradient>
    <radialGradient id="product-gancho-universal-glow" cx="50%" cy="48%" r="62%">
      <stop offset="0%" stop-color="#34d399" stop-opacity="0.9" />
      <stop offset="60%" stop-color="#02100f" stop-opacity="0.25" />
      <stop offset="100%" stop-color="#02100f" stop-opacity="0" />
    </radialGradient>
    <pattern id="product-gancho-universal-grid" width="20" height="20" patternUnits="userSpaceOnUse">
      <path d="M20 0H0V20" fill="none" stroke="#22c55e" stroke-width="0.6" opacity="0.18" />
    </pattern>
    <filter id="product-gancho-universal-sparkle">
      <feGaussianBlur stdDeviation="2" result="blur" />
      <feMerge>
        <feMergeNode in="blur" />
        <feMergeNode in="SourceGraphic" />
      </feMerge>
    </filter>
  </defs>
  <rect width="160" height="160" rx="20" fill="url(#product-gancho-universal-bg)" />
  <rect width="160" height="160" rx="20" fill="url(#product-gancho-universal-grid)" opacity="0.15" />
  <ellipse cx="80" cy="88" rx="68" ry="50" fill="url(#product-gancho-universal-glow)" opacity="0.4">
    <animate attributeName="opacity" values="0.35;0.55;0.35" dur="6s" repeatCount="indefinite" />
  </ellipse>
  <g filter="url(#product-gancho-universal-sparkle)">
    <g transform="translate(80 88)">
      <path d="M0 -44 C28 -44 36 -24 36 -8 C36 8 26 18 12 18 H-6 C-18 18 -26 28 -26 38 C-26 50 -16 60 -4 60" stroke="#bbf7d0" stroke-width="10" stroke-linecap="round" fill="none" />
      <path d="M0 -44 C-28 -44 -36 -24 -36 -8 C-36 4 -30 12 -20 16" stroke="#34d399" stroke-width="6" stroke-linecap="round" fill="none" opacity="0.6" />
      <circle cx="-4" cy="60" r="6" fill="#34d399" />
    </g>
  </g>
  <g class="sparkles" fill="#dcfce7" opacity="0.6">
    <circle cx="24" cy="32" r="2">
      <animate attributeName="opacity" values="0;1;0" dur="3.8s" repeatCount="indefinite" />
      <animate attributeName="r" values="1;3;1" dur="3.8s" repeatCount="indefinite" />
    </circle>
    <circle cx="140" cy="28" r="2.4">
      <animate attributeName="opacity" values="0;0.8;0" dur="4.6s" repeatCount="indefinite" />
      <animate attributeName="r" values="1.5;3;1.5" dur="4.6s" repeatCount="indefinite" />
    </circle>
    <circle cx="132" cy="134" r="2">
      <animate attributeName="opacity" values="0;1;0" dur="5s" repeatCount="indefinite" />
      <animate attributeName="r" values="1;2.6;1" dur="5s" repeatCount="indefinite" />
    </circle>
  </g>
</svg>
