<svg xmlns="http://www.w3.org/2000/svg" viewBox="0 0 200 200" role="img" aria-labelledby="title desc">
  <title id="title">Micro-IoT Pulso</title>
  <desc id="desc">Módulo IoT con halo de señal, pantalla de diagnóstico y sensores laterales.</desc>
  <defs>
    <linearGradient id="bg" x1="0%" y1="0%" x2="100%" y2="100%">
      <stop offset="0%" stop-color="#e5f9ff"/>
      <stop offset="100%" stop-color="#f2fbff"/>
    </linearGradient>
    <radialGradient id="halo" cx="50%" cy="50%" r="60%">
      <stop offset="0%" stop-color="#2f80ff" stop-opacity="0.3"/>
      <stop offset="100%" stop-color="#2f80ff" stop-opacity="0"/>
    </radialGradient>
    <linearGradient id="lens" x1="0%" y1="0%" x2="100%" y2="0%">
      <stop offset="0%" stop-color="#eb3b5a"/>
      <stop offset="100%" stop-color="#ff7a88"/>
    </linearGradient>
  </defs>
  <rect width="200" height="200" rx="32" fill="url(#bg)"/>
  <ellipse cx="100" cy="156" rx="52" ry="16" fill="#0f172a" opacity="0.08"/>
  <circle cx="100" cy="104" r="64" fill="url(#halo)"/>
  <rect x="60" y="60" width="80" height="88" rx="20" fill="#0f172a" opacity="0.08"/>
  <rect x="68" y="68" width="64" height="72" rx="18" fill="#ffffff"/>
  <rect x="74" y="76" width="52" height="32" rx="12" fill="#0f172a" opacity="0.1"/>
  <rect x="82" y="82" width="36" height="12" rx="6" fill="#2f80ff" opacity="0.6"/>
  <circle cx="100" cy="112" r="22" fill="#0f172a" opacity="0.08"/>
  <circle cx="100" cy="112" r="14" fill="url(#lens)"/>
  <circle cx="100" cy="112" r="6" fill="#ffffff" opacity="0.7"/>
  <rect x="86" y="136" width="28" height="8" rx="4" fill="#2f80ff" opacity="0.45"/>
  <path d="M100 48v18" stroke="#2f80ff" stroke-width="5" stroke-linecap="round" opacity="0.6"/>
  <path d="M56 112h18" stroke="#00a6a8" stroke-width="5" stroke-linecap="round" opacity="0.6"/>
  <path d="M126 112h18" stroke="#00a6a8" stroke-width="5" stroke-linecap="round" opacity="0.6"/>
  <path d="M100 140v18" stroke="#2f80ff" stroke-width="5" stroke-linecap="round" opacity="0.6"/>
  <circle cx="70" cy="92" r="6" fill="#2f80ff" opacity="0.5"/>
  <circle cx="130" cy="92" r="6" fill="#eb3b5a" opacity="0.5"/>
</svg>
