<svg xmlns="http://www.w3.org/2000/svg" viewBox="0 0 200 200" role="img" aria-labelledby="title-combo-premium">
  <title id="title-combo-premium">Combo Premium Quinteto</title>
  <desc>5 llaveros PETG + 15 stickers + personalización - Con todo y salsa</desc>
  
  <defs>
    <linearGradient id="bg-premium" x1="0%" y1="0%" x2="100%" y2="100%">
      <stop offset="0%" style="stop-color:#9B59B6;stop-opacity:0.15"/>
      <stop offset="100%" style="stop-color:#E74C3C;stop-opacity:0.15"/>
    </linearGradient>
    <linearGradient id="key-purple" x1="0%" y1="0%" x2="100%" y2="100%">
      <stop offset="0%" style="stop-color:#C084FC;stop-opacity:1"/>
      <stop offset="100%" style="stop-color:#9B59B6;stop-opacity:1"/>
    </linearGradient>
    <linearGradient id="custom-shine" x1="0%" y1="0%" x2="100%" y2="100%">
      <stop offset="0%" style="stop-color:#F59E0B;stop-opacity:1"/>
      <stop offset="50%" style="stop-color:#FBBF24;stop-opacity:1"/>
      <stop offset="100%" style="stop-color:#F59E0B;stop-opacity:0.8"/>
    </linearGradient>
    <filter id="glow-premium">
      <feGaussianBlur stdDeviation="3" result="coloredBlur"/>
      <feMerge>
        <feMergeNode in="coloredBlur"/>
        <feMergeNode in="SourceGraphic"/>
      </feMerge>
    </filter>
  </defs>
  
  <rect width="200" height="200" fill="url(#bg-premium)"/>
  
  <!-- 5 llaveros en círculo -->
  <g id="keys-circle" transform="translate(100, 50)">
    <g transform="rotate(0)">
      <g transform="translate(0, -30)">
        <circle cx="0" cy="0" r="4" fill="none" stroke="url(#key-purple)" stroke-width="1.5"/>
        <rect x="-8" y="3" width="16" height="12" rx="2" fill="url(#key-purple)" filter="url(#glow-premium)"/>
        <line x1="0" y1="7" x2="0" y2="12" stroke="#FFF" stroke-width="1.2"/>
      </g>
    </g>
    <g transform="rotate(72)">
      <g transform="translate(0, -30)">
        <circle cx="0" cy="0" r="4" fill="none" stroke="url(#key-purple)" stroke-width="1.5"/>
        <rect x="-8" y="3" width="16" height="12" rx="2" fill="url(#key-purple)" filter="url(#glow-premium)"/>
        <line x1="0" y1="7" x2="0" y2="12" stroke="#FFF" stroke-width="1.2"/>
      </g>
    </g>
    <g transform="rotate(144)">
      <g transform="translate(0, -30)">
        <circle cx="0" cy="0" r="4" fill="none" stroke="url(#key-purple)" stroke-width="1.5"/>
        <rect x="-8" y="3" width="16" height="12" rx="2" fill="url(#key-purple)" filter="url(#glow-premium)"/>
        <line x1="0" y1="7" x2="0" y2="12" stroke="#FFF" stroke-width="1.2"/>
      </g>
    </g>
    <g transform="rotate(216)">
      <g transform="translate(0, -30)">
        <circle cx="0" cy="0" r="4" fill="none" stroke="url(#key-purple)" stroke-width="1.5"/>
        <rect x="-8" y="3" width="16" height="12" rx="2" fill="url(#key-purple)" filter="url(#glow-premium)"/>
        <line x1="0" y1="7" x2="0" y2="12" stroke="#FFF" stroke-width="1.2"/>
      </g>
    </g>
    <g transform="rotate(288)">
      <g transform="translate(0, -30)">
        <circle cx="0" cy="0" r="4" fill="none" stroke="url(#key-purple)" stroke-width="1.5"/>
        <rect x="-8" y="3" width="16" height="12" rx="2" fill="url(#key-purple)" filter="url(#glow-premium)"/>
        <line x1="0" y1="7" x2="0" y2="12" stroke="#FFF" stroke-width="1.2"/>
      </g>
    </g>
  </g>
  
  <circle cx="100" cy="50" r="15" fill="#9B59B6" filter="url(#glow-premium)"/>
  <text x="100" y="55" font-family="Arial, sans-serif" font-size="14" font-weight="bold" fill="#FFF" text-anchor="middle">×5</text>
  
  <!-- Icono personalización (estrella) -->
  <g transform="translate(155, 45)">
    <path d="M 0,-10 L 2.5,-3 L 10,-3 L 4,2 L 6,10 L 0,5 L -6,10 L -4,2 L -10,-3 L -2.5,-3 Z" 
          fill="url(#custom-shine)" filter="url(#glow-premium)"/>
    <text x="0" y="20" font-family="Arial, sans-serif" font-size="8" font-weight="bold" fill="#F59E0B" text-anchor="middle">ABC</text>
  </g>
  
  <text x="100" y="105" font-family="Arial, sans-serif" font-size="18" font-weight="bold" fill="#9B59B6" text-anchor="middle">+</text>
  
  <!-- Stickers medianos -->
  <g id="stickers-medium" transform="translate(60, 115)">
    <rect x="0" y="6" width="80" height="50" rx="4" fill="#DDD" opacity="0.3"/>
    <rect x="-2" y="3" width="80" height="50" rx="4" fill="#EEE" opacity="0.5"/>
    <rect x="-4" y="0" width="80" height="50" rx="4" fill="#FFF" stroke="#E74C3C" stroke-width="2"/>
    
    <circle cx="15" cy="15" r="6" fill="#E74C3C" opacity="0.6"/>
    <circle cx="40" cy="18" r="5" fill="#9B59B6" opacity="0.5"/>
    <circle cx="60" cy="14" r="6" fill="#FB923C" opacity="0.6"/>
    <rect x="12" y="30" width="56" height="3" rx="1.5" fill="#333" opacity="0.7"/>
    <rect x="18" y="36" width="44" height="2" rx="1" fill="#666" opacity="0.5"/>
  </g>
  
  <circle cx="155" cy="145" r="14" fill="#E74C3C" filter="url(#glow-premium)"/>
  <text x="155" y="150" font-family="Arial, sans-serif" font-size="12" font-weight="bold" fill="#FFF" text-anchor="middle">×15</text>
  
  <g transform="translate(100, 188)">
    <rect x="-38" y="-12" width="76" height="18" rx="9" fill="#9B59B6"/>
    <text x="0" y="2" font-family="Arial, sans-serif" font-size="14" font-weight="bold" fill="#FFF" text-anchor="middle">$210</text>
  </g>
</svg>
