<svg xmlns="http://www.w3.org/2000/svg" viewBox="0 0 200 200" role="img" aria-labelledby="title-combo-pack4">
  <title id="title-combo-pack4">Combo Pack 4 + Stickers</title>
  <desc>4 llaveros PETG + 25 stickers - Pa' la banda</desc>
  
  <defs>
    <linearGradient id="bg-pack4" x1="0%" y1="0%" x2="100%" y2="100%">
      <stop offset="0%" style="stop-color:#7EC8E3;stop-opacity:0.15"/>
      <stop offset="100%" style="stop-color:#06B6D4;stop-opacity:0.15"/>
    </linearGradient>
    <linearGradient id="key-cyan" x1="0%" y1="0%" x2="100%" y2="100%">
      <stop offset="0%" style="stop-color:#22D3EE;stop-opacity:1"/>
      <stop offset="100%" style="stop-color:#06B6D4;stop-opacity:1"/>
    </linearGradient>
    <filter id="glow-pack4">
      <feGaussianBlur stdDeviation="2.5" result="coloredBlur"/>
      <feMerge>
        <feMergeNode in="coloredBlur"/>
        <feMergeNode in="SourceGraphic"/>
      </feMerge>
    </filter>
  </defs>
  
  <rect width="200" height="200" fill="url(#bg-pack4)"/>
  
  <!-- Grid de 4 llaveros (2×2) -->
  <g id="grid-keys" transform="translate(45, 25)">
    <!-- Fila 1 -->
    <g transform="translate(0, 0)">
      <circle cx="12" cy="8" r="5" fill="none" stroke="url(#key-cyan)" stroke-width="2"/>
      <rect x="10" y="12" width="22" height="16" rx="2" fill="url(#key-cyan)" filter="url(#glow-pack4)"/>
      <line x1="21" y1="17" x2="21" y2="23" stroke="#FFF" stroke-width="1.5" stroke-linecap="round"/>
    </g>
    <g transform="translate(50, 0)">
      <circle cx="12" cy="8" r="5" fill="none" stroke="url(#key-cyan)" stroke-width="2"/>
      <rect x="10" y="12" width="22" height="16" rx="2" fill="url(#key-cyan)" filter="url(#glow-pack4)"/>
      <line x1="21" y1="17" x2="21" y2="23" stroke="#FFF" stroke-width="1.5" stroke-linecap="round"/>
    </g>
    
    <!-- Fila 2 -->
    <g transform="translate(0, 35)">
      <circle cx="12" cy="8" r="5" fill="none" stroke="url(#key-cyan)" stroke-width="2"/>
      <rect x="10" y="12" width="22" height="16" rx="2" fill="url(#key-cyan)" filter="url(#glow-pack4)"/>
      <line x1="21" y1="17" x2="21" y2="23" stroke="#FFF" stroke-width="1.5" stroke-linecap="round"/>
    </g>
    <g transform="translate(50, 35)">
      <circle cx="12" cy="8" r="5" fill="none" stroke="url(#key-cyan)" stroke-width="2"/>
      <rect x="10" y="12" width="22" height="16" rx="2" fill="url(#key-cyan)" filter="url(#glow-pack4)"/>
      <line x1="21" y1="17" x2="21" y2="23" stroke="#FFF" stroke-width="1.5" stroke-linecap="round"/>
    </g>
  </g>
  
  <circle cx="145" cy="55" r="14" fill="#7EC8E3" filter="url(#glow-pack4)"/>
  <text x="145" y="60" font-family="Arial, sans-serif" font-size="14" font-weight="bold" fill="#FFF" text-anchor="middle">×4</text>
  
  <text x="100" y="105" font-family="Arial, sans-serif" font-size="20" font-weight="bold" fill="#06B6D4" text-anchor="middle">+</text>
  
  <!-- Stack grande de stickers -->
  <g id="stickers-large" transform="translate(50, 115)">
    <rect x="0" y="10" width="100" height="55" rx="4" fill="#DDD" opacity="0.3"/>
    <rect x="-2" y="7" width="100" height="55" rx="4" fill="#EEE" opacity="0.4"/>
    <rect x="-4" y="4" width="100" height="55" rx="4" fill="#F8F8F8" opacity="0.6"/>
    <rect x="-6" y="1" width="100" height="55" rx="4" fill="#FFF" stroke="#FB923C" stroke-width="2.5"/>
    
    <!-- Patrón -->
    <circle cx="15" cy="15" r="8" fill="#FB923C" opacity="0.5"/>
    <circle cx="40" cy="20" r="6" fill="#06B6D4" opacity="0.6"/>
    <circle cx="70" cy="18" r="7" fill="#9B59B6" opacity="0.5"/>
    <rect x="15" y="35" width="70" height="4" rx="2" fill="#333" opacity="0.6"/>
    <rect x="20" y="42" width="60" height="3" rx="1.5" fill="#666" opacity="0.4"/>
    <rect x="25" y="48" width="50" height="2" rx="1" fill="#999" opacity="0.3"/>
  </g>
  
  <circle cx="165" cy="150" r="16" fill="#FB923C" filter="url(#glow-pack4)"/>
  <text x="165" y="155" font-family="Arial, sans-serif" font-size="12" font-weight="bold" fill="#FFF" text-anchor="middle">×25</text>
  
  <g transform="translate(100, 188)">
    <rect x="-35" y="-12" width="70" height="18" rx="9" fill="#7EC8E3"/>
    <text x="0" y="2" font-family="Arial, sans-serif" font-size="14" font-weight="bold" fill="#FFF" text-anchor="middle">$180</text>
  </g>
</svg>
