<svg xmlns="http://www.w3.org/2000/svg" viewBox="0 0 200 200" role="img" aria-labelledby="title-combo-trio">
  <title id="title-combo-trio">Combo Trío + Stickers</title>
  <desc>3 llaveros PETG + 10 stickers - Sin miedo al éxito</desc>
  
  <defs>
    <linearGradient id="bg-combo-trio" x1="0%" y1="0%" x2="100%" y2="100%">
      <stop offset="0%" style="stop-color:#FF6B9D;stop-opacity:0.15"/>
      <stop offset="100%" style="stop-color:#FFB347;stop-opacity:0.15"/>
    </linearGradient>
    <linearGradient id="key-shine-trio" x1="0%" y1="0%" x2="100%" y2="100%">
      <stop offset="0%" style="stop-color:#FFD700;stop-opacity:0.9"/>
      <stop offset="50%" style="stop-color:#FFA500;stop-opacity:1"/>
      <stop offset="100%" style="stop-color:#FF8C00;stop-opacity:0.8"/>
    </linearGradient>
    <filter id="glow-trio">
      <feGaussianBlur stdDeviation="2" result="coloredBlur"/>
      <feMerge>
        <feMergeNode in="coloredBlur"/>
        <feMergeNode in="SourceGraphic"/>
      </feMerge>
    </filter>
  </defs>
  
  <!-- Fondo -->
  <rect width="200" height="200" fill="url(#bg-combo-trio)"/>
  
  <!-- Llaveros (3 piezas) -->
  <g id="keychains" transform="translate(30, 40)">
    <!-- Llavero 1 -->
    <g transform="translate(0, 0)">
      <ellipse cx="12" cy="8" rx="6" ry="6" fill="#333" opacity="0.3"/>
      <circle cx="12" cy="8" r="5" fill="none" stroke="url(#key-shine-trio)" stroke-width="2"/>
      <rect x="10" y="12" width="24" height="18" rx="2" fill="url(#key-shine-trio)" filter="url(#glow-trio)"/>
      <path d="M 22 18 L 22 24" stroke="#FFF" stroke-width="1.5" stroke-linecap="round"/>
      <circle cx="22" cy="27" r="1.5" fill="#FFF"/>
    </g>
    
    <!-- Llavero 2 -->
    <g transform="translate(40, 5)">
      <ellipse cx="12" cy="8" rx="6" ry="6" fill="#333" opacity="0.3"/>
      <circle cx="12" cy="8" r="5" fill="none" stroke="url(#key-shine-trio)" stroke-width="2"/>
      <rect x="10" y="12" width="24" height="18" rx="2" fill="url(#key-shine-trio)" filter="url(#glow-trio)"/>
      <path d="M 22 18 L 22 24" stroke="#FFF" stroke-width="1.5" stroke-linecap="round"/>
      <circle cx="22" cy="27" r="1.5" fill="#FFF"/>
    </g>
    
    <!-- Llavero 3 -->
    <g transform="translate(80, 0)">
      <ellipse cx="12" cy="8" rx="6" ry="6" fill="#333" opacity="0.3"/>
      <circle cx="12" cy="8" r="5" fill="none" stroke="url(#key-shine-trio)" stroke-width="2"/>
      <rect x="10" y="12" width="24" height="18" rx="2" fill="url(#key-shine-trio)" filter="url(#glow-trio)"/>
      <path d="M 22 18 L 22 24" stroke="#FFF" stroke-width="1.5" stroke-linecap="round"/>
      <circle cx="22" cy="27" r="1.5" fill="#FFF"/>
    </g>
  </g>
  
  <!-- Badge "×3" -->
  <circle cx="140" cy="50" r="14" fill="#FFB347" filter="url(#glow-trio)"/>
  <text x="140" y="55" font-family="Arial, sans-serif" font-size="14" font-weight="bold" fill="#FFF" text-anchor="middle">×3</text>
  
  <!-- Separador -->
  <text x="100" y="95" font-family="Arial, sans-serif" font-size="20" font-weight="bold" fill="#FF6B9D" text-anchor="middle">+</text>
  
  <!-- Stack de stickers (10 pzas) -->
  <g id="stickers" transform="translate(60, 110)">
    <!-- Base apilada -->
    <rect x="0" y="8" width="80" height="60" rx="4" fill="#E0E0E0" opacity="0.3"/>
    <rect x="-2" y="6" width="80" height="60" rx="4" fill="#F5F5F5" opacity="0.5"/>
    <rect x="-4" y="4" width="80" height="60" rx="4" fill="#FFF" stroke="#06B6D4" stroke-width="2"/>
    
    <!-- Diseño holográfico -->
    <path d="M 10 20 L 30 40 L 50 20 L 30 30 Z" fill="#06B6D4" opacity="0.6"/>
    <path d="M 35 25 L 55 45 L 65 35 L 55 40 Z" fill="#FB923C" opacity="0.5"/>
    <circle cx="20" cy="50" r="6" fill="#9B59B6" opacity="0.4"/>
    
    <!-- Texto "MAHITEK" simulado -->
    <rect x="10" y="52" width="60" height="3" rx="1.5" fill="#333" opacity="0.7"/>
    <rect x="15" y="57" width="50" height="2" rx="1" fill="#666" opacity="0.5"/>
  </g>
  
  <!-- Badge "×10" -->
  <circle cx="155" cy="145" r="14" fill="#06B6D4" filter="url(#glow-trio)"/>
  <text x="155" y="150" font-family="Arial, sans-serif" font-size="12" font-weight="bold" fill="#FFF" text-anchor="middle">×10</text>
  
  <!-- Precio destacado -->
  <g transform="translate(100, 185)">
    <rect x="-35" y="-12" width="70" height="18" rx="9" fill="#FF6B9D"/>
    <text x="0" y="2" font-family="Arial, sans-serif" font-size="14" font-weight="bold" fill="#FFF" text-anchor="middle">$120</text>
  </g>
</svg>
