<svg xmlns="http://www.w3.org/2000/svg" viewBox="0 0 200 200" role="img" aria-labelledby="title desc">
  <title id="title">Regalos personalizados</title>
  <desc id="desc">Caja de regalo con piezas impresas y tarjeta con iniciales.</desc>
  <defs>
    <linearGradient id="bg" x1="0%" y1="0%" x2="100%" y2="100%">
      <stop offset="0%" stop-color="#fff3f7"/>
      <stop offset="100%" stop-color="#ffdce9"/>
    </linearGradient>
    <linearGradient id="wrap" x1="0%" y1="0%" x2="100%" y2="0%">
      <stop offset="0%" stop-color="#eb3b5a"/>
      <stop offset="60%" stop-color="#ff7ab8"/>
      <stop offset="100%" stop-color="#ffb0f5"/>
    </linearGradient>
    <linearGradient id="hud" x1="0%" y1="0%" x2="0%" y2="100%">
      <stop offset="0%" stop-color="#ff9cd6" stop-opacity="0.25"/>
      <stop offset="100%" stop-color="#ffcee8" stop-opacity="0.08"/>
    </linearGradient>
    <pattern id="raster" width="12" height="12" patternUnits="userSpaceOnUse">
      <path d="M12 0H0V12" fill="none" stroke="#ff7ab8" stroke-width="0.6" opacity="0.18"/>
    </pattern>
  </defs>
  <rect width="200" height="200" rx="32" fill="url(#bg)"/>
  <rect x="32" y="32" width="136" height="136" rx="30" fill="url(#raster)" opacity="0.3"/>
  <rect x="50" y="70" width="100" height="80" rx="22" fill="#0f172a" opacity="0.08"/>
  <rect x="58" y="78" width="84" height="48" rx="18" fill="#ffffff"/>
  <rect x="64" y="84" width="72" height="36" rx="14" fill="url(#hud)"/>
  <rect x="58" y="122" width="84" height="18" rx="9" fill="#0f172a" opacity="0.1"/>
  <rect x="80" y="66" width="40" height="92" rx="16" fill="url(#wrap)"/>
  <path d="M80 100c10-6 14-16 20-16s10 10 20 16c-10 6-14 16-20 16s-10-10-20-16z" fill="#ffd4e6"/>
  <path d="M84 104h32" stroke="#ff9cd6" stroke-width="2" stroke-linecap="round" opacity="0.4"/>
  <rect x="96" y="66" width="8" height="92" rx="4" fill="#ffffff" opacity="0.55"/>
  <rect x="40" y="106" width="24" height="24" rx="8" fill="#ffffff" opacity="0.88"/>
  <path d="M48 120l8-16 8 16z" fill="#2f80ff" opacity="0.55"/>
  <path d="M44 132h30" stroke="#ff7ab8" stroke-width="2" stroke-linecap="round" opacity="0.35"/>
  <rect x="136" y="90" width="24" height="36" rx="10" fill="#ffffff" opacity="0.82"/>
  <rect x="142" y="96" width="12" height="24" rx="6" fill="#2f80ff" opacity="0.7"/>
  <path d="M140 118h16" stroke="#00a6a8" stroke-width="2" stroke-linecap="round" opacity="0.4"/>
  <g fill="none" stroke-width="1.6" opacity="0.3">
    <path d="M60 70l-12-12" stroke="#2f80ff" stroke-linecap="round"/>
    <path d="M140 70l12-12" stroke="#00a6a8" stroke-linecap="round"/>
    <path d="M68 166h64" stroke="#ff7ab8" stroke-dasharray="8 5"/>
  </g>
</svg>
