<svg xmlns="http://www.w3.org/2000/svg" viewBox="0 0 200 200" role="img" aria-labelledby="title desc">
  <title id="title">Decoración y hogar</title>
  <desc id="desc">Maceta geométrica con planta y lámpara colgante.</desc>
  <defs>
    <linearGradient id="bg" x1="0%" y1="0%" x2="100%" y2="100%">
      <stop offset="0%" stop-color="#f5fff0"/>
      <stop offset="100%" stop-color="#dcffe8"/>
    </linearGradient>
    <linearGradient id="lamp" x1="0%" y1="0%" x2="100%" y2="50%">
      <stop offset="0%" stop-color="#2f80ff"/>
      <stop offset="100%" stop-color="#48ffcd"/>
    </linearGradient>
    <linearGradient id="planter" x1="0%" y1="0%" x2="0%" y2="100%">
      <stop offset="0%" stop-color="#ffffff"/>
      <stop offset="100%" stop-color="#eefaff"/>
    </linearGradient>
    <pattern id="grid" width="14" height="14" patternUnits="userSpaceOnUse">
      <path d="M14 0H0V14" fill="none" stroke="#2f80ff" stroke-width="0.6" opacity="0.12"/>
    </pattern>
  </defs>
  <rect width="200" height="200" rx="32" fill="url(#bg)"/>
  <rect x="32" y="28" width="136" height="144" rx="30" fill="url(#grid)" opacity="0.25"/>
  <path d="M100 36v48" stroke="#0f172a" stroke-width="6" stroke-linecap="round" opacity="0.35"/>
  <path d="M100 36l-18-12" stroke="#2f80ff" stroke-width="2" stroke-linecap="round" opacity="0.45"/>
  <path d="M100 36l18-12" stroke="#00a6a8" stroke-width="2" stroke-linecap="round" opacity="0.45"/>
  <path d="M92 84h16l4 6-12 18-12-18z" fill="url(#lamp)"/>
  <circle cx="100" cy="108" r="14" fill="#ffffff" opacity="0.9"/>
  <path d="M92 108h16" stroke="#2f80ff" stroke-width="2" stroke-linecap="round" opacity="0.4"/>
  <rect x="54" y="110" width="92" height="48" rx="20" fill="#0f172a" opacity="0.08"/>
  <path d="M68 126l32-20 32 20-12 28H80z" fill="url(#planter)"/>
  <path d="M80 126l20-12 20 12-8 18h-24z" fill="#eb3b5a" opacity="0.58"/>
  <path d="M72 150h16" stroke="#00a6a8" stroke-width="2" stroke-linecap="round" opacity="0.4"/>
  <path d="M112 150h16" stroke="#2f80ff" stroke-width="2" stroke-linecap="round" opacity="0.35"/>
  <path d="M68 126l12 28" stroke="#2f80ff" stroke-width="4" stroke-linecap="round" opacity="0.6"/>
  <path d="M132 126l-12 28" stroke="#2f80ff" stroke-width="4" stroke-linecap="round" opacity="0.6"/>
  <path d="M100 114c-8-6-18-10-28-12" stroke="#00a6a8" stroke-width="3" stroke-linecap="round" opacity="0.7"/>
  <path d="M100 114c8-6 18-10 28-12" stroke="#00a6a8" stroke-width="3" stroke-linecap="round" opacity="0.7"/>
  <g fill="none" stroke-width="1.6" opacity="0.28">
    <path d="M64 96l-14-14" stroke="#2f80ff" stroke-linecap="round"/>
    <path d="M136 96l14-14" stroke="#00a6a8" stroke-linecap="round"/>
    <path d="M54 170h92" stroke="#00a6a8" stroke-dasharray="8 6"/>
  </g>
</svg>
