<svg viewBox="0 0 200 200" xmlns="http://www.w3.org/2000/svg" fill="none">
  <defs>
    <linearGradient id="grad-gift" x1="0%" y1="0%" x2="100%" y2="100%">
      <stop offset="0%" style="stop-color:#DD2A7B;stop-opacity:1" />
      <stop offset="100%" style="stop-color:#F58529;stop-opacity:1" />
    </linearGradient>
  </defs>
  
  <!-- Caja principal -->
  <g class="gift-box">
    <rect x="60" y="95" width="80" height="65" rx="6" fill="url(#grad-gift)" stroke="#E8EDF4" stroke-width="2.5" opacity="0.95">
      <animate attributeName="y" values="95;92;95" dur="3s" repeatCount="indefinite"/>
    </rect>
    
    <!-- Lazo -->
    <g class="ribbon">
      <rect x="95" y="80" width="10" height="85" fill="#FEDA77" opacity="0.8"/>
      <rect x="55" y="110" width="90" height="10" fill="#FEDA77" opacity="0.8"/>
      
      <!-- Moño -->
      <circle cx="100" cy="85" r="12" fill="#FEDA77" opacity="0.95">
        <animate attributeName="r" values="12;13;12" dur="2s" repeatCount="indefinite"/>
      </circle>
      <ellipse cx="85" cy="85" rx="10" ry="6" fill="#FEDA77" opacity="0.95" transform="rotate(-30 85 85)"/>
      <ellipse cx="115" cy="85" rx="10" ry="6" fill="#FEDA77" opacity="0.95" transform="rotate(30 115 85)"/>
      
      <!-- Centro del moño -->
      <circle cx="100" cy="85" r="5" fill="#E8EDF4" opacity="0.9"/>
    </g>
    
    <!-- Etiqueta personalizada -->
    <g transform="translate(110, 120)">
      <rect x="0" y="0" width="20" height="15" rx="2" fill="#E8EDF4" stroke="#DD2A7B" stroke-width="1.5" opacity="0.95">
        <animateTransform attributeName="transform" type="rotate" values="0 10 7.5; 5 10 7.5; 0 10 7.5" dur="3s" repeatCount="indefinite"/>
      </rect>
      <path d="M3 5 Q10 3 17 5" stroke="#DD2A7B" stroke-width="1.5" fill="none"/>
      <line x1="3" y1="9" x2="17" y2="9" stroke="#DD2A7B" stroke-width="1"/>
    </g>
  </g>
  
  <!-- Corazón flotante -->
  <g class="heart" transform="translate(40, 80)">
    <path d="M0 5 Q0 0 5 0 Q10 0 10 5 Q10 10 0 15 Q-10 10 -10 5 Q-10 0 -5 0 Q0 0 0 5" fill="#DD2A7B" opacity="0.8">
      <animateTransform attributeName="transform" type="translate" values="0,0; 0,-10; 0,0" dur="3s" repeatCount="indefinite"/>
      <animate attributeName="opacity" values="0.8;0.4;0.8" dur="3s" repeatCount="indefinite"/>
    </path>
  </g>
  
  <!-- Estrellas -->
  <g opacity="0.7">
    <path d="M160 70 L162 76 L168 76 L163 80 L165 86 L160 82 L155 86 L157 80 L152 76 L158 76 Z" fill="#FEDA77">
      <animate attributeName="opacity" values="0.7;0.3;0.7" dur="2s" repeatCount="indefinite"/>
    </path>
    <path d="M150 110 L151 113 L154 113 L151 115 L152 118 L150 116 L148 118 L149 115 L146 113 L149 113 Z" fill="#F58529">
      <animate attributeName="opacity" values="0.7;0.3;0.7" dur="2.5s" repeatCount="indefinite"/>
    </path>
  </g>
  
  <!-- Confetti -->
  <rect x="30" y="100" width="3" height="8" rx="1" fill="#06B6D4" opacity="0.7" transform="rotate(30 31.5 104)">
    <animate attributeName="y" values="100;120" dur="2s" repeatCount="indefinite"/>
    <animate attributeName="opacity" values="0.7;0" dur="2s" repeatCount="indefinite"/>
  </rect>
  <circle cx="170" cy="90" r="2" fill="#10B981" opacity="0.7">
    <animate attributeName="cy" values="90;110" dur="2.3s" repeatCount="indefinite"/>
    <animate attributeName="opacity" values="0.7;0" dur="2.3s" repeatCount="indefinite"/>
  </circle>
  
  <!-- Sombra -->
  <ellipse cx="100" cy="175" rx="50" ry="7" fill="#0B0F14" opacity="0.25"/>
</svg>