<svg xmlns="http://www.w3.org/2000/svg" viewBox="0 0 200 200" role="img" aria-labelledby="title desc">
  <title id="title">Educación y micro-marcas</title>
  <desc id="desc">Kit educativo con piezas modulares, tablet y engranes.</desc>
  <defs>
    <linearGradient id="bg" x1="0%" y1="0%" x2="100%" y2="100%">
      <stop offset="0%" stop-color="#ecfaff"/>
      <stop offset="100%" stop-color="#e0f7ff"/>
    </linearGradient>
    <linearGradient id="chip" x1="0%" y1="0%" x2="100%" y2="0%">
      <stop offset="0%" stop-color="#2f80ff"/>
      <stop offset="100%" stop-color="#00a6a8"/>
    </linearGradient>
  </defs>
  <rect width="200" height="200" rx="32" fill="url(#bg)"/>
  <rect x="44" y="70" width="112" height="78" rx="20" fill="#0f172a" opacity="0.08"/>
  <rect x="52" y="78" width="96" height="46" rx="16" fill="#ffffff"/>
  <rect x="58" y="84" width="84" height="20" rx="10" fill="#0f172a" opacity="0.12"/>
  <rect x="64" y="110" width="72" height="12" rx="6" fill="#0f172a" opacity="0.1"/>
  <rect x="40" y="128" width="120" height="20" rx="10" fill="#ffffff" opacity="0.85"/>
  <rect x="84" y="134" width="32" height="8" rx="4" fill="#2f80ff" opacity="0.6"/>
  <circle cx="62" cy="138" r="10" fill="#eb3b5a" opacity="0.75"/>
  <circle cx="62" cy="138" r="4" fill="#ffffff" opacity="0.8"/>
  <path d="M142 86l18 10-18 10z" fill="#2f80ff" opacity="0.5"/>
  <rect x="136" y="100" width="24" height="24" rx="8" fill="#ffffff"/>
  <rect x="142" y="106" width="12" height="12" rx="4" fill="url(#chip)"/>
  <path d="M52 68h24v-8a8 8 0 0 0-8-8h-8a8 8 0 0 0-8 8z" fill="#ffffff" opacity="0.7"/>
  <path d="M124 68h24v-8a8 8 0 0 0-8-8h-8a8 8 0 0 0-8 8z" fill="#ffffff" opacity="0.7"/>
</svg>
