<svg xmlns="http://www.w3.org/2000/svg" viewBox="0 0 140 140" role="img">
  <title>Regalos</title>
  <defs>
    <linearGradient id="bg-gift" x1="0%" y1="0%" x2="100%" y2="100%">
      <stop offset="0%" stop-color="#0B0F14"/><stop offset="100%" stop-color="#1a1f2e"/>
    </linearGradient>
    <linearGradient id="neon-gift" x1="0%" x2="100%">
      <stop offset="0%" stop-color="#F97316"/><stop offset="100%" stop-color="#EC4899"/>
    </linearGradient>
    <linearGradient id="box-grad" x1="0%" y1="0%" x2="0%" y2="100%">
      <stop offset="0%" stop-color="#EC4899"/><stop offset="100%" stop-color="#F97316"/>
    </linearGradient>
    <filter id="glow-g">
      <feGaussianBlur stdDeviation="3"/><feMerge><feMergeNode/><feMergeNode in="SourceGraphic"/></feMerge>
    </filter>
  </defs>
  
  <rect width="140" height="140" rx="24" fill="url(#bg-gift)"/>
  <rect x="3" y="3" width="134" height="134" rx="21" fill="none" stroke="url(#neon-gift)" stroke-width="2" opacity="0.6"/>
  
  <!-- Escena: Mesa con caja de regalo estilo videojuego isométrico -->
  
  <!-- Mesa/superficie con perspectiva isométrica -->
  <path d="M20,108 L25,105 L115,105 L120,108 Z" fill="url(#neon-gift)" opacity="0.4"/>
  <rect x="20" y="108" width="100" height="6" fill="#1a1f2e" opacity="0.6"/>
  <line x1="20" y1="108" x2="120" y2="108" stroke="#F97316" stroke-width="2" opacity="0.7"/>
  
  <!-- Sombra de la caja -->
  <ellipse cx="70" cy="107" rx="28" ry="6" fill="#000000" opacity="0.5"/>
  
  <!-- Caja de regalo estilo isométrico -->
  <g class="gift-box">
    <animateTransform attributeName="transform" type="translate" values="0,0; 0,-3; 0,0" dur="3s" repeatCount="indefinite"/>
    
    <!-- Cara frontal de la caja -->
    <path d="M45,80 L45,105 L70,115 L70,90 Z" 
          fill="#EC4899" opacity="0.7" stroke="#F97316" stroke-width="2"/>
    
    <!-- Cara derecha de la caja -->
    <path d="M70,90 L70,115 L95,105 L95,80 Z" 
          fill="#F97316" opacity="0.8" stroke="#FF6B00" stroke-width="2"/>
    
    <!-- Cara superior de la caja -->
    <path d="M45,80 L70,70 L95,80 L70,90 Z" 
          fill="url(#box-grad)" opacity="0.9" stroke="#F97316" stroke-width="2" filter="url(#glow-g)">
      <animate attributeName="opacity" values="0.9;1;0.9" dur="2s" repeatCount="indefinite"/>
    </path>
    
    <!-- Cinta vertical (cara frontal) -->
    <path d="M67,80 L67,105 L73,108 L73,83 Z" fill="#FFFFFF" opacity="0.9">
      <animate attributeName="opacity" values="0.9;1;0.9" dur="1.5s" repeatCount="indefinite"/>
    </path>
    
    <!-- Cinta vertical (cara derecha) -->
    <path d="M73,83 L73,108 L79,105 L79,80 Z" fill="#F0F0F0" opacity="0.85">
      <animate attributeName="opacity" values="0.85;1;0.85" dur="1.5s" repeatCount="indefinite"/>
    </path>
    
    <!-- Cinta horizontal superior -->
    <path d="M45,80 L50,77 L90,77 L95,80 L90,83 L50,83 Z" fill="#FFFFFF" opacity="0.95" filter="url(#glow-g)"/>
    
    <!-- Detalles de patrón en la caja -->
    <circle cx="57" cy="92" r="3" fill="#FFFFFF" opacity="0.3"/>
    <circle cx="83" cy="92" r="3" fill="#FFFFFF" opacity="0.3"/>
    <circle cx="57" cy="100" r="3" fill="#FFFFFF" opacity="0.3"/>
    <circle cx="83" cy="100" r="3" fill="#FFFFFF" opacity="0.3"/>
  </g>
  
  <!-- Moño isométrico 3D estilo videojuego -->
  <g class="bow">
    <animateTransform attributeName="transform" type="translate" values="0,0; 0,-2; 0,0" dur="2.5s" repeatCount="indefinite"/>
    
    <!-- Lazo izquierdo (vista isométrica) -->
    <path d="M50,60 L45,55 L48,48 L58,50 L60,58 Z" 
          fill="url(#neon-gift)" stroke="#EC4899" stroke-width="2" filter="url(#glow-g)" opacity="0.9">
      <animate attributeName="opacity" values="0.9;1;0.9" dur="2s" repeatCount="indefinite"/>
    </path>
    <path d="M48,48 L53,45 L60,48 L58,50 Z" 
          fill="#F97316" opacity="0.95" stroke="#FF6B00" stroke-width="1.5"/>
    
    <!-- Lazo derecho (vista isométrica) -->
    <path d="M90,60 L95,55 L92,48 L82,50 L80,58 Z" 
          fill="url(#neon-gift)" stroke="#EC4899" stroke-width="2" filter="url(#glow-g)" opacity="0.9">
      <animate attributeName="opacity" values="0.9;1;0.9" dur="2s" begin="0.3s" repeatCount="indefinite"/>
    </path>
    <path d="M92,48 L87,45 L80,48 L82,50 Z" 
          fill="#F97316" opacity="0.95" stroke="#FF6B00" stroke-width="1.5"/>
    
    <!-- Nudo central (cubo isométrico) -->
    <path d="M65,58 L70,55 L75,58 L75,65 L70,68 L65,65 Z" 
          fill="#F97316" stroke="#FF6B00" stroke-width="2" filter="url(#glow-g)"/>
    <path d="M70,55 L75,58 L75,65 L70,62 Z" 
          fill="#FF6B00" opacity="0.8"/>
    <path d="M65,58 L70,55 L70,62 L65,65 Z" 
          fill="#EC4899" opacity="0.7"/>
    
    <!-- Brillos en el nudo -->
    <circle cx="71" cy="60" r="2" fill="#FFFFFF" opacity="0.9">
      <animate attributeName="opacity" values="0.9;0.5;0.9" dur="1s" repeatCount="indefinite"/>
    </circle>
    
    <!-- Cintas colgantes isométricas -->
    <path d="M68,65 L66,75 L68,76 L70,66 Z" fill="#FFFFFF" opacity="0.8"/>
    <path d="M72,65 L74,75 L72,76 L70,66 Z" fill="#F0F0F0" opacity="0.75"/>
  </g>
  
  <!-- Tarjeta de regalo flotando -->
  <g class="gift-tag">
    <rect x="95" y="75" width="20" height="15" rx="2" fill="#FFFFFF" opacity="0.9" stroke="#F97316" stroke-width="1.5">
      <animateTransform attributeName="transform" type="rotate" values="0 105 82.5; 5 105 82.5; 0 105 82.5; -5 105 82.5; 0 105 82.5" dur="4s" repeatCount="indefinite"/>
    </rect>
    <line x1="98" y1="80" x2="112" y2="80" stroke="#F97316" stroke-width="1.5"/>
    <line x1="98" y1="85" x2="110" y2="85" stroke="#EC4899" stroke-width="1"/>
    
    <!-- Cordón de la tarjeta -->
    <line x1="95" y1="77" x2="90" y2="85" stroke="#F97316" stroke-width="1" opacity="0.6"/>
  </g>
  
  <!-- Confetti/brillos cayendo -->
  <g class="confetti">
    <rect x="30" y="45" width="3" height="6" rx="1" fill="#F97316" opacity="0.7">
      <animate attributeName="y" values="45;110" dur="3s" repeatCount="indefinite"/>
      <animate attributeName="opacity" values="0.7;0" dur="3s" repeatCount="indefinite"/>
      <animateTransform attributeName="transform" type="rotate" values="0 31.5 48; 180 31.5 48" dur="3s" repeatCount="indefinite"/>
    </rect>
    
    <circle cx="110" cy="50" r="2" fill="#EC4899" opacity="0.7">
      <animate attributeName="cy" values="50;110" dur="3.5s" repeatCount="indefinite"/>
      <animate attributeName="opacity" values="0.7;0" dur="3.5s" repeatCount="indefinite"/>
    </circle>
    
    <polygon points="50,30 52,32 50,34 48,32" fill="#FFFFFF" opacity="0.6">
      <animate attributeName="transform" values="translate(0,0); translate(0,80)" dur="4s" repeatCount="indefinite"/>
      <animate attributeName="opacity" values="0.6;0" dur="4s" repeatCount="indefinite"/>
    </polygon>
  </g>
  
  <!-- Resplandor festivo -->
  <circle cx="70" cy="70" r="45" fill="url(#neon-gift)" opacity="0.05">
    <animate attributeName="r" values="45;50;45" dur="3s" repeatCount="indefinite"/>
  </circle>
</svg>
