<svg viewBox="0 0 200 200" xmlns="http://www.w3.org/2000/svg" fill="none">
  <defs>
    <linearGradient id="grad-fandom" x1="0%" y1="0%" x2="100%" y2="100%">
      <stop offset="0%" style="stop-color:#515BD4;stop-opacity:1" />
      <stop offset="100%" style="stop-color:#DD2A7B;stop-opacity:1" />
    </linearGradient>
  </defs>
  
  <!-- Display base -->
  <rect x="40" y="140" width="120" height="15" rx="4" fill="url(#grad-fandom)" stroke="#E8EDF4" stroke-width="2" opacity="0.95"/>
  
  <!-- Figura coleccionable en display -->
  <g class="collectible">
    <!-- Cuerpo heroico -->
    <path d="M85 100 Q85 80 100 75 Q115 80 115 100 L115 125 Q115 135 100 135 Q85 135 85 125 Z" fill="url(#grad-fandom)" stroke="#E8EDF4" stroke-width="2.5" opacity="0.95">
      <animateTransform attributeName="transform" type="translate" values="0,0; 0,-2; 0,0" dur="2.5s" repeatCount="indefinite"/>
    </path>
    
    <!-- Cabeza -->
    <circle cx="100" cy="65" r="15" fill="url(#grad-fandom)" stroke="#E8EDF4" stroke-width="2.5" opacity="0.95">
      <animateTransform attributeName="transform" type="translate" values="0,0; 0,-2; 0,0" dur="2.5s" repeatCount="indefinite"/>
    </circle>
    
    <!-- Capa -->
    <path d="M85 90 Q70 100 75 120 L75 130 Q80 125 85 120" fill="#DD2A7B" opacity="0.7">
      <animateTransform attributeName="transform" type="skewX" values="0; 3; 0; -3; 0" dur="3s" repeatCount="indefinite"/>
    </path>
    <path d="M115 90 Q130 100 125 120 L125 130 Q120 125 115 120" fill="#DD2A7B" opacity="0.7">
      <animateTransform attributeName="transform" type="skewX" values="0; -3; 0; 3; 0" dur="3s" repeatCount="indefinite"/>
    </path>
    
    <!-- Detalles brillantes -->
    <circle cx="95" cy="63" r="2" fill="#FEDA77" opacity="0.9">
      <animate attributeName="opacity" values="0.9;0.5;0.9" dur="1.5s" repeatCount="indefinite"/>
    </circle>
    <circle cx="105" cy="63" r="2" fill="#FEDA77" opacity="0.9">
      <animate attributeName="opacity" values="0.9;0.5;0.9" dur="1.5s" begin="0.3s" repeatCount="indefinite"/>
    </circle>
    
    <!-- Insignia en pecho -->
    <circle cx="100" cy="100" r="6" fill="#FEDA77" stroke="#E8EDF4" stroke-width="1.5" opacity="0.9">
      <animate attributeName="r" values="6;7;6" dur="2s" repeatCount="indefinite"/>
    </circle>
  </g>
  
  <!-- Iluminación de vitrina -->
  <g class="lighting">
    <circle cx="100" cy="100" r="60" fill="url(#grad-fandom)" opacity="0.05">
      <animate attributeName="r" values="60;65;60" dur="3s" repeatCount="indefinite"/>
    </circle>
    
    <!-- Spotlight -->
    <path d="M80 40 L70 80 L130 80 L120 40 Z" fill="#FEDA77" opacity="0.08">
      <animate attributeName="opacity" values="0.08;0.03;0.08" dur="2s" repeatCount="indefinite"/>
    </path>
  </g>
  
  <!-- Props secundarios -->
  <g opacity="0.7">
    <!-- Escudo pequeño -->
    <path d="M40 110 L35 115 L40 125 L45 115 Z" fill="#06B6D4" stroke="#E8EDF4" stroke-width="1.5"/>
    
    <!-- Espada pequeña -->
    <rect x="155" y="115" width="4" height="20" rx="1" fill="#9CA3AF"/>
    <path d="M153 115 L161 115 L157 110 Z" fill="#9CA3AF"/>
  </g>
  
  <!-- Partículas mágicas -->
  <circle cx="60" cy="70" r="1.5" fill="#515BD4" opacity="0.6">
    <animate attributeName="cy" values="70;50;70" dur="4s" repeatCount="indefinite"/>
  </circle>
  <circle cx="140" cy="80" r="1.5" fill="#DD2A7B" opacity="0.6">
    <animate attributeName="cy" values="80;60;80" dur="3.5s" repeatCount="indefinite"/>
  </circle>
  
  <!-- Sombra -->
  <ellipse cx="100" cy="175" rx="60" ry="8" fill="#0B0F14" opacity="0.25"/>
</svg>