<svg viewBox="0 0 200 200" xmlns="http://www.w3.org/2000/svg" fill="none">
  <defs>
    <linearGradient id="grad-design" x1="0%" y1="0%" x2="100%" y2="100%">
      <stop offset="0%" style="stop-color:#8134AF;stop-opacity:1" />
      <stop offset="100%" style="stop-color:#06B6D4;stop-opacity:1" />
    </linearGradient>
  </defs>
  
  <!-- Pantalla/Monitor -->
  <rect x="40" y="50" width="120" height="80" rx="6" fill="url(#grad-design)" stroke="#E8EDF4" stroke-width="2.5" opacity="0.95"/>
  <rect x="45" y="55" width="110" height="70" rx="4" fill="#0B0F14" opacity="0.4"/>
  
  <!-- Grid de diseño en pantalla -->
  <g opacity="0.8">
    <line x1="65" y1="70" x2="135" y2="70" stroke="#06B6D4" stroke-width="1.5">
      <animate attributeName="x2" values="135;140;135" dur="3s" repeatCount="indefinite"/>
    </line>
    <line x1="65" y1="85" x2="120" y2="85" stroke="#10B981" stroke-width="1.5">
      <animate attributeName="x2" values="120;125;120" dur="2.5s" repeatCount="indefinite"/>
    </line>
    <line x1="65" y1="100" x2="130" y2="100" stroke="#FEDA77" stroke-width="1.5">
      <animate attributeName="x2" values="130;135;130" dur="2.8s" repeatCount="indefinite"/>
    </line>
    
    <!-- Formas 3D preview -->
    <circle cx="70" cy="110" r="6" fill="none" stroke="#06B6D4" stroke-width="2">
      <animate attributeName="r" values="6;7;6" dur="2s" repeatCount="indefinite"/>
    </circle>
    <rect x="85" y="104" width="12" height="12" rx="2" fill="none" stroke="#10B981" stroke-width="2">
      <animate attributeName="width" values="12;14;12" dur="2.2s" repeatCount="indefinite"/>
      <animate attributeName="height" values="12;14;12" dur="2.2s" repeatCount="indefinite"/>
    </rect>
    <path d="M105 105 L115 105 L110 118 Z" fill="none" stroke="#FEDA77" stroke-width="2">
      <animateTransform attributeName="transform" type="rotate" values="0 110 111; 5 110 111; 0 110 111" dur="3s" repeatCount="indefinite"/>
    </path>
  </g>
  
  <!-- Base del monitor -->
  <rect x="85" y="130" width="30" height="4" rx="2" fill="#9CA3AF" opacity="0.7"/>
  <path d="M95 130 L90 145 L110 145 L105 130" fill="#9CA3AF" opacity="0.5"/>
  
  <!-- Mano/Cursor interactuando -->
  <g class="cursor">
    <path d="M150 95 L160 85 L163 90 L170 87 L167 92 L175 95 L165 105 L160 100 Z" fill="#E8EDF4" stroke="#06B6D4" stroke-width="1.5" opacity="0.9">
      <animateTransform attributeName="transform" type="translate" values="0,0; -10,-5; 0,0" dur="3s" repeatCount="indefinite"/>
    </path>
  </g>
  
  <!-- Partículas de creatividad -->
  <circle cx="30" cy="70" r="2" fill="#FEDA77" opacity="0.7">
    <animate attributeName="cy" values="70;50;70" dur="4s" repeatCount="indefinite"/>
  </circle>
  <circle cx="170" cy="90" r="2" fill="#10B981" opacity="0.7">
    <animate attributeName="cy" values="90;70;90" dur="3.5s" repeatCount="indefinite"/>
  </circle>
  
  <!-- Sombra base -->
  <ellipse cx="100" cy="175" rx="60" ry="8" fill="#0B0F14" opacity="0.2"/>
</svg>