<svg width="640" height="640" viewBox="0 0 640 640" fill="none" xmlns="http://www.w3.org/2000/svg">
  <defs>
    <linearGradient id="bg" x1="0%" y1="0%" x2="100%" y2="100%">
      <stop offset="0%" stop-color="#0F3B2C"/>
      <stop offset="40%" stop-color="#0B1A2A"/>
      <stop offset="100%" stop-color="#061017"/>
    </linearGradient>
    <linearGradient id="glow" x1="0%" y1="0%" x2="100%" y2="100%">
      <stop offset="0%" stop-color="#65FF8F" stop-opacity="0.85"/>
      <stop offset="100%" stop-color="#00F0FF" stop-opacity="0.45"/>
    </linearGradient>
    <radialGradient id="orb" cx="50%" cy="50%" r="50%">
      <stop offset="0%" stop-color="#65FF8F" stop-opacity="0.8"/>
      <stop offset="100%" stop-color="#65FF8F" stop-opacity="0"/>
    </radialGradient>
    <filter id="drops" x="-20%" y="-20%" width="140%" height="140%">
      <feGaussianBlur in="SourceGraphic" stdDeviation="60" result="blur"/>
      <feMerge>
        <feMergeNode in="blur"/>
        <feMergeNode in="SourceGraphic"/>
      </feMerge>
    </filter>
  </defs>
  <rect width="640" height="640" rx="52" fill="url(#bg)"/>
  <rect x="36" y="36" width="568" height="568" rx="48" fill="rgba(8,12,18,0.55)" stroke="rgba(255,255,255,0.12)" stroke-width="4"/>
  <g filter="url(#drops)">
    <circle cx="480" cy="160" r="90" fill="url(#orb)"/>
  </g>
  <g opacity="0.9">
    <path d="M120 420C120 360 140 308 180 300C220 292 256 350 256 420" stroke="#65FF8F" stroke-width="12" stroke-linecap="round"/>
    <path d="M180 360V480" stroke="#65FF8F" stroke-width="14" stroke-linecap="round"/>
    <path d="M220 400V480" stroke="#65FF8F" stroke-width="10" stroke-linecap="round"/>
    <circle cx="180" cy="330" r="22" fill="#65FF8F"/>
  </g>
  <g opacity="0.7">
    <path d="M320 400C320 344 336 300 368 296C400 292 424 340 424 400" stroke="#00F0FF" stroke-width="12" stroke-linecap="round"/>
    <path d="M360 340V480" stroke="#00F0FF" stroke-width="12" stroke-linecap="round"/>
    <path d="M392 380V480" stroke="#00F0FF" stroke-width="10" stroke-linecap="round"/>
    <circle cx="360" cy="320" r="18" fill="#00F0FF"/>
  </g>
  <g opacity="0.6">
    <path d="M460 420C460 360 476 316 504 312C532 308 552 348 552 404" stroke="#FF5C9B" stroke-width="10" stroke-linecap="round"/>
    <path d="M492 360V484" stroke="#FF5C9B" stroke-width="10" stroke-linecap="round"/>
    <circle cx="492" cy="338" r="18" fill="#FF5C9B"/>
  </g>
  <g opacity="0.4">
    <path d="M84 380C84 336 96 296 118 290C140 284 156 312 156 360" stroke="#9B5CFF" stroke-width="8" stroke-linecap="round"/>
    <path d="M118 328V468" stroke="#9B5CFF" stroke-width="8" stroke-linecap="round"/>
    <circle cx="118" cy="312" r="14" fill="#9B5CFF"/>
  </g>
  <rect x="140" y="136" width="360" height="160" rx="32" fill="rgba(3, 8, 15, 0.8)" stroke="rgba(255,255,255,0.18)" stroke-width="2"/>
  <text x="180" y="188" font-family="'Inter', 'Segoe UI', sans-serif" font-size="32" font-weight="700" fill="#65FF8F">Mahitek 3D Lab</text>
  <text x="180" y="226" font-family="'Inter', 'Segoe UI', sans-serif" font-size="18" fill="#B8B9C7">Telar de tecnología aditiva e IoT</text>
  <rect x="180" y="248" width="220" height="44" rx="22" fill="url(#glow)"/>
  <text x="192" y="278" font-family="'Inter', 'Segoe UI', sans-serif" font-size="18" font-weight="700" fill="#012013">Colección Bazar · PETG</text>
  <g opacity="0.6">
    <circle cx="440" cy="188" r="10" fill="#65FF8F"/>
    <circle cx="468" cy="206" r="8" fill="#00F0FF"/>
    <circle cx="416" cy="214" r="6" fill="#FF5C9B"/>
  </g>
</svg>
